<svg width="32" height="32" viewBox="0 0 32 32" fill="none" xmlns="http://www.w3.org/2000/svg">
    <path d="M8.83999 25.5044C8.78726 25.5198 8.73755 25.5442 8.69299 25.5764C8.6045 25.6393 8.53892 25.7294 8.50618 25.833C8.47343 25.9365 8.4753 26.048 8.51149 26.1504C8.56149 26.2904 9.76149 29.6004 12.517 30.8799C13.2119 31.2046 13.9699 31.3722 14.737 31.3709C15.457 31.3641 16.1706 31.2346 16.847 30.9879C17.5395 31.2595 18.2794 31.39 19.0232 31.3714C19.7669 31.3529 20.4993 31.1857 21.1775 30.8799C23.9355 29.6019 25.134 26.2904 25.183 26.1504C25.2056 26.0865 25.215 26.0187 25.2107 25.9511C25.2063 25.8835 25.1882 25.8174 25.1575 25.757C25.1268 25.6966 25.0842 25.6431 25.0322 25.5996C24.9802 25.5562 24.9199 25.5238 24.855 25.5044C24.662 25.4464 20.1765 24.0424 20.194 19.4689C20.21 15.0539 24.633 14.0049 24.8215 13.9624V13.9584C24.8909 13.9446 24.9565 13.9159 25.0138 13.8742C25.071 13.8326 25.1185 13.779 25.153 13.7171C25.1875 13.6553 25.2081 13.5867 25.2134 13.5162C25.2188 13.4456 25.2088 13.3747 25.184 13.3084C25.134 13.1679 23.9365 9.85836 21.1785 8.57886C20.0038 8.03982 18.6751 7.93805 17.432 8.29186C17.4655 8.08286 17.5125 7.83886 17.5755 7.57586C17.6245 7.43123 17.6641 7.28359 17.694 7.13386C18.094 5.78086 18.9485 4.13736 20.7705 3.77736L20.575 2.79536C19.9458 2.92266 19.3509 3.18206 18.8294 3.55639C18.3079 3.93072 17.8719 4.41147 17.55 4.96686C17.524 4.87886 17.5025 4.79286 17.471 4.70186C16.39 1.58186 12.937 0.796859 12.7905 0.764859C12.6768 0.740754 12.5583 0.75671 12.455 0.810023C12.3518 0.863335 12.2702 0.950721 12.224 1.05736C12.1655 1.19486 10.804 4.46386 12.7195 7.15236C12.9921 7.54389 13.3167 7.89647 13.6845 8.20036C13.2819 8.28122 12.8901 8.40875 12.517 8.58036C9.75949 9.85836 8.56099 13.1694 8.51149 13.3099C8.4753 13.4123 8.47343 13.5237 8.50618 13.6272C8.53892 13.7308 8.6045 13.8209 8.69299 13.8839C8.74791 13.9217 8.81004 13.9477 8.87549 13.9604V13.9649C8.92199 13.9754 13.4855 15.0389 13.502 19.4709C13.518 24.0414 9.03399 25.4459 8.83999 25.5044ZM20.753 29.9749C20.1657 30.2327 19.5316 30.3669 18.8901 30.3693C18.2487 30.3716 17.6137 30.2419 17.0245 29.9884C16.9103 29.9451 16.7842 29.9451 16.67 29.9884C16.0809 30.2418 15.4459 30.3714 14.8046 30.3691C14.1633 30.3667 13.5293 30.2326 12.942 29.9749C11.7697 29.3597 10.8037 28.4142 10.1635 27.2554C10.8099 27.5101 11.5129 27.5865 12.1989 27.4767C12.885 27.3668 13.5289 27.0747 14.0635 26.6309C14.201 26.7309 14.3415 26.8209 14.4825 26.9064C15.1975 27.3316 16.0141 27.556 16.846 27.556C17.6779 27.556 18.4944 27.3316 19.2095 26.9064C19.351 26.8214 19.491 26.7289 19.6295 26.6309C20.1642 27.0745 20.8081 27.3664 21.4941 27.4763C22.1801 27.5861 22.883 27.5098 23.5295 27.2554C22.8897 28.4138 21.9244 29.3593 20.753 29.9749ZM13 1.86736C13.87 2.16286 15.8335 3.03286 16.5245 5.02886C16.7441 5.60532 16.8148 6.22784 16.73 6.83886C16.6797 7.01053 16.6355 7.17719 16.5975 7.33886C16.5037 7.59373 16.3612 7.82792 16.178 8.02836C15.824 8.07836 14.628 8.11386 13.5325 6.57386C12.306 4.85036 12.7355 2.75036 13 1.86736ZM12.943 9.48336C13.5302 9.22542 14.1642 9.09111 14.8056 9.08879C15.447 9.08647 16.0819 9.21618 16.671 9.46986C16.7851 9.51386 16.9114 9.51386 17.0255 9.46986C17.6147 9.21629 18.2497 9.08663 18.8911 9.08896C19.5326 9.09128 20.1667 9.22553 20.754 9.48336C21.9263 10.0985 22.8923 11.0441 23.5325 12.2029C22.886 11.9487 22.1831 11.8725 21.4972 11.9824C20.8112 12.0922 20.1673 12.384 19.6325 12.8274C19.4938 12.7274 19.354 12.6355 19.213 12.5519C18.4979 12.1264 17.6813 11.9019 16.8492 11.9019C16.0172 11.9019 15.2006 12.1264 14.4855 12.5519C14.3445 12.6374 14.204 12.7289 14.0665 12.8274C13.5319 12.3837 12.8879 12.0917 12.2019 11.9818C11.5159 11.872 10.8129 11.9483 10.1665 12.2029C10.8059 11.0445 11.7708 10.099 12.942 9.48336H12.943ZM14.5 19.4649C14.486 15.6769 11.675 13.9829 10.111 13.3329C10.6717 13.0059 11.3254 12.875 11.9687 12.9608C12.6121 13.0466 13.2086 13.3443 13.664 13.8069C13.7494 13.9029 13.8686 13.9624 13.9967 13.9729C14.1248 13.9834 14.252 13.9442 14.352 13.8634C14.5574 13.6971 14.7739 13.5451 15 13.4084C15.5588 13.0756 16.1971 12.8999 16.8475 12.8999C17.4979 12.8999 18.1362 13.0756 18.695 13.4084C18.9209 13.5449 19.1371 13.697 19.342 13.8634C19.4419 13.9433 19.5685 13.9821 19.696 13.972C19.8236 13.9619 19.9425 13.9035 20.0285 13.8089C20.4838 13.346 21.0804 13.0479 21.7239 12.9617C22.3675 12.8756 23.0214 13.0061 23.5825 13.3329C22.019 13.9829 19.208 15.6769 19.194 19.4649C19.179 23.4194 22.1125 25.3474 23.6515 26.0869C23.0875 26.4346 22.4223 26.5807 21.7645 26.5015C21.1067 26.4222 20.4952 26.1221 20.03 25.6504C19.9446 25.5543 19.8254 25.4948 19.6973 25.4843C19.5692 25.4738 19.4419 25.513 19.342 25.5939C19.1369 25.7602 18.9205 25.9122 18.6945 26.0489C18.1359 26.3819 17.4978 26.5579 16.8474 26.5581C16.1971 26.5584 15.5588 26.3829 15 26.0504C14.7744 25.9134 14.5582 25.7614 14.353 25.5954C14.2531 25.5154 14.1265 25.4766 13.999 25.4867C13.8714 25.4968 13.7525 25.5552 13.6665 25.6499C13.2012 26.122 12.5895 26.4223 11.9315 26.5018C11.2734 26.5813 10.6078 26.4352 10.0435 26.0874C11.5825 25.3474 14.5155 23.4194 14.5 19.4649Z" fill="white"/>
    <path d="M16.3472 18.5811H17.3472V21.4271H16.3472V18.5811Z" fill="white"/>
    </svg>
    