<svg width="24" height="28" viewBox="0 0 24 28" fill="none" xmlns="http://www.w3.org/2000/svg">
<g clip-path="url(#clip0_2694_180473)">
<path d="M22.9148 21.4926L17.0833 27.2781C16.8053 27.5539 16.3874 27.6368 16.0239 27.4864C15.6604 27.336 15.4233 26.985 15.4233 26.5954L15.4233 23.7027L14.4513 23.7027C3.17901 23.7027 -5.95899 14.6367 -5.95899 3.45331L-5.95899 1.5248C-5.95899 0.992533 -5.52357 0.560547 -4.98707 0.560547L-1.09939 0.560547C-0.562885 0.560547 -0.127465 0.992533 -0.127465 1.5248L-0.127465 3.45331C-0.127464 11.4412 6.39995 17.9171 14.4513 17.9171L15.4233 17.9171L15.4233 15.0244C15.4233 14.6348 15.6604 14.2819 16.0239 14.1334C16.3874 13.983 16.8053 14.0659 17.0833 14.3417L22.9148 20.1272C23.2939 20.5052 23.2939 21.1146 22.9148 21.4926Z" fill="url(#paint0_linear_2694_180473)"/>
</g>
<defs>
<linearGradient id="paint0_linear_2694_180473" x1="8.62006" y1="1.49488" x2="8.62006" y2="26.5208" gradientUnits="userSpaceOnUse">
<stop stop-color="#EEF4FF"/>
<stop offset="1" stop-color="#CFE7FD"/>
</linearGradient>
<clipPath id="clip0_2694_180473">
<rect width="24" height="28" fill="white" transform="matrix(1 -8.7078e-08 -8.77702e-08 -1 0 28)"/>
</clipPath>
</defs>
</svg>
