<svg width="25" height="25" viewBox="0 0 25 25" fill="none" xmlns="http://www.w3.org/2000/svg">
    <g clip-path="url(#clip0)">
    <path d="M22.9167 0H2.91665C1.30659 0.00185547 0.00185547 1.30659 0 2.91665V22.9167C0.00136719 24.0667 0.933301 24.9986 2.08335 25H12.0833C12.5434 24.9995 12.9162 24.6267 12.9167 24.1667V18.9226L18.9225 12.9166H24.1667C24.6267 12.9161 24.9995 12.5434 25 12.0833V2.0833C24.9986 0.933301 24.0667 0.00136719 22.9167 0ZM12.0833 24.1667H7.67275L12.0833 19.756V24.1667ZM24.1667 12.0833H19.7558L24.1667 7.67231V12.0833ZM24.1667 5.97637C24.1657 6.30767 24.0341 6.62524 23.8004 6.86016L18.4555 12.2053L18.4552 12.2055L12.2059 18.455L12.2049 18.456L6.86035 23.8007C6.62632 24.0358 6.30796 24.1677 5.97617 24.1667H2.08335C1.39331 24.166 0.834082 23.6067 0.83335 22.9167V2.9167C0.834717 1.76665 1.76665 0.834717 2.9167 0.83335H22.9167C23.6067 0.834082 24.166 1.39331 24.1667 2.08335V5.97637H24.1667Z" fill="white"/>
    <path d="M4.58335 2.5C3.43271 2.5 2.5 3.43271 2.5 4.58335C2.50137 5.7334 3.4333 6.66533 4.58335 6.6667C5.73394 6.6667 6.6667 5.73398 6.6667 4.58335C6.66665 3.43271 5.73394 2.5 4.58335 2.5ZM4.58335 5.83335C3.89297 5.83335 3.33335 5.27373 3.33335 4.58335C3.33408 3.89331 3.89331 3.33408 4.58335 3.33335C5.27368 3.33335 5.83335 3.89297 5.83335 4.58335C5.83335 5.27368 5.27368 5.83335 4.58335 5.83335Z" fill="white"/>
    <path d="M4.58335 18.333C3.43276 18.333 2.5 19.2658 2.5 20.4164C2.5 21.5669 3.43271 22.4997 4.58335 22.4997C5.7334 22.4983 6.66533 21.5664 6.6667 20.4163C6.66665 19.2657 5.73394 18.333 4.58335 18.333ZM4.58335 21.6663C3.89297 21.6663 3.33335 21.1067 3.33335 20.4163C3.33335 19.7259 3.89297 19.1663 4.58335 19.1663C5.27368 19.1663 5.83335 19.726 5.83335 20.4163C5.83257 21.1063 5.27339 21.6656 4.58335 21.6663Z" fill="white"/>
    <path d="M20.4164 2.5C19.2658 2.5 18.333 3.43271 18.333 4.58335C18.3344 5.7334 19.2663 6.66533 20.4164 6.6667C21.5669 6.6667 22.4997 5.73398 22.4997 4.58335C22.4997 3.43271 21.567 2.5 20.4164 2.5ZM20.4164 5.83335C19.726 5.83335 19.1664 5.27373 19.1664 4.58335C19.1671 3.89331 19.7263 3.33408 20.4164 3.33335C21.1067 3.33335 21.6664 3.89297 21.6664 4.58335C21.6664 5.27368 21.1067 5.83335 20.4164 5.83335Z" fill="white"/>
    </g>
    <defs>
    <clipPath id="clip0">
    <rect width="25" height="25" fill="white"/>
    </clipPath>
    </defs>
    </svg>
    