<svg width="25" height="25" viewBox="0 0 35 35" fill="none" xmlns="http://www.w3.org/2000/svg">
    <path d="M13.4999 13.9591L9.85413 11.7716C9.51288 11.5659 9.06226 11.6753 8.85369 12.0209C8.64807 12.3666 8.75888 12.8142 9.1045 13.0214L12.7503 15.2089C12.867 15.2789 12.9968 15.3124 13.1251 15.3124C13.3716 15.3124 13.6137 15.187 13.7508 14.9595C13.9578 14.6139 13.8456 14.1662 13.4999 13.9591Z" fill="white"/>
    <path d="M17.8749 12.5007L14.2291 10.3132C13.8879 10.1062 13.4373 10.217 13.2287 10.5626C13.0231 10.9082 13.1339 11.3559 13.4795 11.563L17.1253 13.7505C17.242 13.8205 17.3717 13.8541 17.5001 13.8541C17.7466 13.8541 17.9887 13.7287 18.1258 13.5012C18.3328 13.1555 18.2206 12.7078 17.8749 12.5007Z" fill="white"/>
    <path d="M22.2499 11.0417L18.6041 8.85423C18.2629 8.64717 17.8137 8.75798 17.6037 9.1036C17.3981 9.44923 17.5089 9.89691 17.8545 10.104L21.5003 12.2915C21.617 12.3615 21.7467 12.3951 21.8751 12.3951C22.1216 12.3951 22.3637 12.2697 22.5008 12.0422C22.7078 11.6965 22.5956 11.2488 22.2499 11.0417Z" fill="white"/>
    <path d="M26.6249 9.58406L22.9791 7.39656C22.6379 7.19094 22.1858 7.30031 21.9787 7.64594C21.7731 7.99156 21.8839 8.43925 22.2295 8.64637L25.8753 10.8339C25.992 10.9039 26.1217 10.9374 26.2501 10.9374C26.4966 10.9374 26.7387 10.812 26.8758 10.5845C27.0828 10.2389 26.9706 9.79119 26.6249 9.58406Z" fill="white"/>
    <path d="M34.9824 10.8682C34.9751 10.7982 34.9606 10.7312 34.9343 10.667C34.9197 10.6305 34.9037 10.5984 34.8832 10.5649C34.8482 10.5066 34.8045 10.4585 34.7534 10.4118C34.733 10.3929 34.7242 10.3666 34.7009 10.3505C34.6907 10.3432 34.6761 10.3432 34.6659 10.336C34.6528 10.3272 34.6455 10.3141 34.6309 10.3054L24.4226 4.47198C24.2462 4.37135 24.0362 4.34654 23.8437 4.40929L0.510371 11.7009C0.478311 11.7097 0.453496 11.733 0.422871 11.7476C0.403936 11.7564 0.382061 11.7534 0.364561 11.7637C0.35 11.7724 0.342686 11.7899 0.328125 11.8001C0.245 11.8555 0.177939 11.924 0.125439 12.0043C0.116689 12.0188 0.103564 12.0276 0.0948144 12.0422C0.039375 12.1429 0.0116895 12.2537 0.00731445 12.3704C0.00731445 12.3791 0 12.3864 0 12.3952V24.0619C0 24.3229 0.14 24.565 0.3675 24.6948L10.5758 30.5281C10.6881 30.5923 10.8121 30.6244 10.9375 30.6244C11.0089 30.6244 11.0833 30.6142 11.1533 30.5908L34.4866 23.2991C34.7914 23.2043 34.9999 22.9229 34.9999 22.6035V10.9368C34.9999 10.9134 34.9854 10.893 34.9824 10.8682ZM10.2082 28.638L1.45824 23.6389V13.6522L10.2082 18.6514V28.638ZM11.0235 17.438L2.54324 12.592L23.9749 5.89385L32.4551 10.7399L11.0235 17.438ZM33.5416 22.0668L11.6666 28.9035V18.7637L33.5416 11.9285V22.0668Z" fill="white"/>
    </svg>
    