<svg width="59" height="58" viewBox="0 0 59 58" fill="none" xmlns="http://www.w3.org/2000/svg">
    <g filter="url(#filter0_d)">
    <circle cx="27.6143" cy="27.3858" r="26.6143" fill="#52A9DD"/>
    </g>
    <path d="M35.7227 30.031C36.2364 29.3529 36.6655 28.6076 36.9948 27.8108H38.7587C41.0494 27.8108 42.9131 25.9471 42.9131 23.6564C42.9131 21.8359 41.7359 20.2864 40.103 19.7263C39.5087 13.4291 34.1924 8.48535 27.7424 8.48535C21.2923 8.48535 15.9757 13.4291 15.3814 19.7263C13.7488 20.2864 12.5713 21.8359 12.5713 23.6564C12.5713 25.9471 14.435 27.8108 16.726 27.8108H18.4896C18.8189 28.6076 19.2481 29.3529 19.7617 30.031C15.3904 32.7363 12.5713 37.554 12.5713 42.9351C12.5713 43.7086 13.1982 44.3355 13.9717 44.3355H41.5127C42.2862 44.3355 42.9131 43.7086 42.9131 42.9351C42.9134 37.5575 40.0965 32.7377 35.7227 30.031ZM38.7587 25.01H37.6986C37.7872 24.1301 37.762 23.2204 37.6045 22.3025H38.7587C39.5051 22.3025 40.1123 22.91 40.1123 23.6564C40.1126 24.4028 39.5051 25.01 38.7587 25.01ZM27.7424 11.2861C32.5691 11.2861 36.5758 14.861 37.256 19.5017H36.6792C32.9741 12.1712 22.5147 12.163 18.8052 19.5017H18.2287C18.9086 14.861 22.9156 11.2861 27.7424 11.2861ZM16.726 25.01C15.9796 25.01 15.3721 24.4028 15.3721 23.6564C15.3721 22.91 15.9796 22.3025 16.726 22.3025H17.8799C17.7309 23.1726 17.6926 24.0817 17.7859 25.01H16.726ZM27.7424 25.01H20.6072C19.997 20.6767 23.3669 16.7945 27.7424 16.7945C32.6005 16.7945 36.0055 21.511 34.6631 26.0095C32.9255 31.9866 24.9325 33.0932 21.6285 27.8108H27.7424C28.5159 27.8108 29.1427 27.1839 29.1427 26.4104C29.1427 25.6369 28.5159 25.01 27.7424 25.01ZM15.4506 41.5347C15.909 37.4755 18.3381 33.9701 21.829 32.0681C25.3502 34.6561 30.1367 34.6545 33.6557 32.0681C37.1442 33.9688 39.5752 37.4728 40.0338 41.5347H15.4506Z" fill="white"/>
    <circle cx="46.8998" cy="8.1" r="7.1" fill="#FF0000" stroke="white" stroke-width="2"/>
    <defs>
    <filter id="filter0_d" x="0.228572" y="5.59092e-05" width="57.8571" height="57.8571" filterUnits="userSpaceOnUse" color-interpolation-filters="sRGB">
    <feFlood flood-opacity="0" result="BackgroundImageFix"/>
    <feColorMatrix in="SourceAlpha" type="matrix" values="0 0 0 0 0 0 0 0 0 0 0 0 0 0 0 0 0 0 127 0" result="hardAlpha"/>
    <feOffset dx="1.54286" dy="1.54286"/>
    <feGaussianBlur stdDeviation="1.15714"/>
    <feComposite in2="hardAlpha" operator="out"/>
    <feColorMatrix type="matrix" values="0 0 0 0 0 0 0 0 0 0 0 0 0 0 0 0 0 0 0.25 0"/>
    <feBlend mode="normal" in2="BackgroundImageFix" result="effect1_dropShadow"/>
    <feBlend mode="normal" in="SourceGraphic" in2="effect1_dropShadow" result="shape"/>
    </filter>
    </defs>
    </svg>
    