<svg width="32" height="32" viewBox="0 0 32 32" fill="none" xmlns="http://www.w3.org/2000/svg">
    <g clip-path="url(#clip0)">
    <path d="M17.5999 3.73281C17.5999 2.84917 16.8835 2.13281 15.9999 2.13281C15.1163 2.13281 14.3999 2.84917 14.3999 3.73281C14.3999 4.61646 15.1163 5.33281 15.9999 5.33281C16.8835 5.33281 17.5999 4.61651 17.5999 3.73281ZM15.4666 3.73281C15.4666 3.43828 15.7054 3.1995 15.9999 3.1995C16.2944 3.1995 16.5332 3.43828 16.5332 3.73281C16.5332 4.02734 16.2944 4.26613 15.9999 4.26613C15.7054 4.26613 15.4666 4.0274 15.4666 3.73281Z" fill="#52A9DD"/>
    <path d="M30.9334 17.6H28.2667V17.0667C28.2663 16.4197 27.8764 15.8367 27.2787 15.5893C26.681 15.3418 25.993 15.4787 25.5355 15.9361L17.5579 12.8336C18.0805 12.4618 18.4491 11.9117 18.5941 11.287C18.8824 10.0703 18.2895 8.81625 17.1664 8.26671C16.8415 8.11895 16.6116 7.8189 16.5536 7.46668H17.1003C17.5743 7.46647 18.0238 7.25562 18.327 6.89122L20.4267 4.37335C20.6676 4.08564 20.7997 3.72245 20.8 3.34724V1.6C20.8 0.716355 20.0836 0 19.2 0H12.8C11.9164 0 11.2 0.716355 11.2 1.6V3.34719C11.2005 3.7224 11.3326 4.08554 11.5733 4.3733L13.673 6.89222C13.976 7.25693 14.4256 7.468 14.8997 7.46821H15.4762C15.5345 8.23312 16.0023 8.90653 16.6987 9.2282C17.3749 9.56205 17.7302 10.3193 17.5546 11.0528C17.3629 11.8413 16.6111 12.3614 15.8056 12.2628C15 12.1642 14.3959 11.4782 14.4 10.6666C14.4 10.372 14.1612 10.1333 13.8667 10.1333C13.5722 10.1333 13.3334 10.372 13.3334 10.6666C13.3313 11.4795 13.7017 12.2485 14.3387 12.7535C14.375 12.7823 14.4155 12.8031 14.4528 12.8298L6.46451 15.9359C6.00699 15.4785 5.31904 15.3417 4.72131 15.5891C4.12359 15.8365 3.73368 16.4196 3.73332 17.0665V17.5998H1.06668C0.47757 17.6 0 18.0776 0 18.6667V20.2667C0.000367442 20.6983 0.260779 21.0871 0.659716 21.2517L3.9216 30.5712C4.22107 31.4271 5.02876 32.0001 5.93545 32.0001H26.0645C26.9712 32.0002 27.7789 31.4271 28.0783 30.5712L31.3402 21.2517C31.7392 21.0871 31.9996 20.6983 31.9999 20.2667V18.6667C32 18.0776 31.5224 17.6 30.9334 17.6ZM14.4901 6.20799L12.3899 3.68854C12.3102 3.59264 12.2666 3.47191 12.2667 3.34719V1.6C12.2667 1.30547 12.5055 1.06668 12.8 1.06668H19.2C19.4945 1.06668 19.7333 1.30547 19.7333 1.6V3.34719C19.7334 3.47185 19.6898 3.59264 19.6101 3.68854L17.5104 6.20856C17.409 6.32998 17.259 6.40011 17.1008 6.40005H14.8997C14.7415 6.39995 14.5914 6.32961 14.4901 6.20799ZM26.1334 17.0667C26.1334 16.7722 26.3722 16.5334 26.6667 16.5334C26.9612 16.5334 27.2 16.7722 27.2 17.0667V17.6H26.1333V17.0667H26.1334ZM16 13.3723L25.0832 16.9067C25.0748 16.9597 25.0693 17.0131 25.0667 17.0667V17.6H6.93332V17.0667C6.93069 17.0131 6.92518 16.9597 6.91678 16.9067L16 13.3723ZM4.8 17.0667C4.8 16.7722 5.03878 16.5334 5.33332 16.5334C5.62785 16.5334 5.86663 16.7722 5.86663 17.0667V17.6H4.8V17.0667ZM1.06668 18.6667H30.9334V20.2667H1.06668V18.6667ZM27.0715 30.2192C26.9217 30.647 26.5179 30.9334 26.0646 30.9334H5.93545C5.48218 30.9335 5.07831 30.647 4.9285 30.2192L1.81868 21.3334H3.73337V22.4001C3.73337 22.6946 3.97215 22.9334 4.26668 22.9334C4.56121 22.9334 4.8 22.6946 4.8 22.4001V21.3334H5.86668V22.4001C5.86668 22.6946 6.10547 22.9334 6.4 22.9334C6.69453 22.9334 6.93332 22.6946 6.93332 22.4001V21.3334H25.0666V22.4001C25.0666 22.6946 25.3054 22.9334 25.5999 22.9334C25.8945 22.9334 26.1333 22.6946 26.1333 22.4001V21.3334H27.1999V22.4001C27.1999 22.6946 27.4387 22.9334 27.7333 22.9334C28.0278 22.9334 28.2666 22.6946 28.2666 22.4001V21.3334H30.1813L27.0715 30.2192Z" fill="#52A9DD"/>
    <path fill-rule="evenodd" clip-rule="evenodd" d="M7.99986 28.7997H6.69213L6.43561 28.0674C6.33839 27.7894 6.0342 27.6428 5.75615 27.74C5.4781 27.8372 5.3315 28.1414 5.42871 28.4194L5.81006 29.5091C5.88486 29.7231 6.0868 29.8664 6.31351 29.8664H7.99991C8.29444 29.8664 8.53323 29.6276 8.53323 29.3331C8.53317 29.0385 8.29439 28.7997 7.99986 28.7997Z" fill="#52A9DD"/>
    </g>
    <defs>
    <clipPath id="clip0">
    <rect width="32" height="32" fill="white"/>
    </clipPath>
    </defs>
    </svg>
    