<svg width="66" height="66" viewBox="0 0 66 66" fill="none" xmlns="http://www.w3.org/2000/svg">
    <g filter="url(#filter0_d)">
    <circle cx="33" cy="29" r="29" fill="white"/>
    </g>
    <g clip-path="url(#clip0)">
    <path d="M34.5999 16.7328C34.5999 15.8492 33.8835 15.1328 32.9999 15.1328C32.1163 15.1328 31.3999 15.8492 31.3999 16.7328C31.3999 17.6165 32.1163 18.3328 32.9999 18.3328C33.8835 18.3328 34.5999 17.6165 34.5999 16.7328ZM32.4666 16.7328C32.4666 16.4383 32.7054 16.1995 32.9999 16.1995C33.2944 16.1995 33.5332 16.4383 33.5332 16.7328C33.5332 17.0273 33.2944 17.2661 32.9999 17.2661C32.7054 17.2661 32.4666 17.0274 32.4666 16.7328Z" fill="#52A9DD"/>
    <path d="M47.9334 30.6H45.2667V30.0667C45.2663 29.4197 44.8764 28.8367 44.2787 28.5893C43.681 28.3418 42.993 28.4787 42.5355 28.9361L34.5579 25.8336C35.0805 25.4618 35.4491 24.9117 35.5941 24.287C35.8824 23.0703 35.2895 21.8162 34.1664 21.2667C33.8415 21.1189 33.6116 20.8189 33.5536 20.4667H34.1003C34.5743 20.4665 35.0238 20.2556 35.327 19.8912L37.4267 17.3733C37.6676 17.0856 37.7997 16.7225 37.8 16.3472V14.6C37.8 13.7164 37.0836 13 36.2 13H29.8C28.9164 13 28.2 13.7164 28.2 14.6V16.3472C28.2005 16.7224 28.3326 17.0855 28.5733 17.3733L30.673 19.8922C30.976 20.2569 31.4256 20.468 31.8997 20.4682H32.4762C32.5345 21.2331 33.0023 21.9065 33.6987 22.2282C34.3749 22.562 34.7302 23.3193 34.5546 24.0528C34.3629 24.8413 33.6111 25.3614 32.8056 25.2628C32 25.1642 31.3959 24.4782 31.4 23.6666C31.4 23.372 31.1612 23.1333 30.8667 23.1333C30.5722 23.1333 30.3334 23.372 30.3334 23.6666C30.3313 24.4795 30.7017 25.2485 31.3387 25.7535C31.375 25.7823 31.4155 25.8031 31.4528 25.8298L23.4645 28.9359C23.007 28.4785 22.319 28.3417 21.7213 28.5891C21.1236 28.8365 20.7337 29.4196 20.7333 30.0665V30.5998H18.0667C17.4776 30.6 17 31.0776 17 31.6667V33.2667C17.0004 33.6983 17.2608 34.0871 17.6597 34.2517L20.9216 43.5712C21.2211 44.4271 22.0288 45.0001 22.9354 45.0001H43.0645C43.9712 45.0002 44.7789 44.4271 45.0783 43.5712L48.3402 34.2517C48.7392 34.0871 48.9996 33.6983 48.9999 33.2667V31.6667C49 31.0776 48.5224 30.6 47.9334 30.6ZM31.4901 19.208L29.3899 16.6885C29.3102 16.5926 29.2666 16.4719 29.2667 16.3472V14.6C29.2667 14.3055 29.5055 14.0667 29.8 14.0667H36.2C36.4945 14.0667 36.7333 14.3055 36.7333 14.6V16.3472C36.7334 16.4719 36.6898 16.5926 36.6101 16.6885L34.5104 19.2086C34.409 19.33 34.259 19.4001 34.1008 19.4001H31.8997C31.7415 19.3999 31.5914 19.3296 31.4901 19.208ZM43.1334 30.0667C43.1334 29.7722 43.3722 29.5334 43.6667 29.5334C43.9612 29.5334 44.2 29.7722 44.2 30.0667V30.6H43.1333V30.0667H43.1334ZM33 26.3723L42.0832 29.9067C42.0748 29.9597 42.0693 30.0131 42.0667 30.0667V30.6H23.9333V30.0667C23.9307 30.0131 23.9252 29.9597 23.9168 29.9067L33 26.3723ZM21.8 30.0667C21.8 29.7722 22.0388 29.5334 22.3333 29.5334C22.6278 29.5334 22.8666 29.7722 22.8666 30.0667V30.6H21.8V30.0667ZM18.0667 31.6667H47.9334V33.2667H18.0667V31.6667ZM44.0715 43.2192C43.9217 43.647 43.5179 43.9334 43.0646 43.9334H22.9354C22.4822 43.9335 22.0783 43.647 21.9285 43.2192L18.8187 34.3334H20.7334V35.4001C20.7334 35.6946 20.9722 35.9334 21.2667 35.9334C21.5612 35.9334 21.8 35.6946 21.8 35.4001V34.3334H22.8667V35.4001C22.8667 35.6946 23.1055 35.9334 23.4 35.9334C23.6945 35.9334 23.9333 35.6946 23.9333 35.4001V34.3334H42.0666V35.4001C42.0666 35.6946 42.3054 35.9334 42.5999 35.9334C42.8945 35.9334 43.1333 35.6946 43.1333 35.4001V34.3334H44.1999V35.4001C44.1999 35.6946 44.4387 35.9334 44.7333 35.9334C45.0278 35.9334 45.2666 35.6946 45.2666 35.4001V34.3334H47.1813L44.0715 43.2192Z" fill="#52A9DD"/>
    <path fill-rule="evenodd" clip-rule="evenodd" d="M24.9999 41.7997H23.6921L23.4356 41.0674C23.3384 40.7894 23.0342 40.6428 22.7562 40.74C22.4781 40.8372 22.3315 41.1414 22.4287 41.4194L22.8101 42.5091C22.8849 42.7231 23.0868 42.8664 23.3135 42.8664H24.9999C25.2944 42.8664 25.5332 42.6276 25.5332 42.3331C25.5332 42.0385 25.2944 41.7997 24.9999 41.7997Z" fill="#52A9DD"/>
    </g>
    <defs>
    <filter id="filter0_d" x="0" y="0" width="66" height="66" filterUnits="userSpaceOnUse" color-interpolation-filters="sRGB">
    <feFlood flood-opacity="0" result="BackgroundImageFix"/>
    <feColorMatrix in="SourceAlpha" type="matrix" values="0 0 0 0 0 0 0 0 0 0 0 0 0 0 0 0 0 0 127 0" result="hardAlpha"/>
    <feOffset dy="4"/>
    <feGaussianBlur stdDeviation="2"/>
    <feComposite in2="hardAlpha" operator="out"/>
    <feColorMatrix type="matrix" values="0 0 0 0 0 0 0 0 0 0 0 0 0 0 0 0 0 0 0.25 0"/>
    <feBlend mode="normal" in2="BackgroundImageFix" result="effect1_dropShadow"/>
    <feBlend mode="normal" in="SourceGraphic" in2="effect1_dropShadow" result="shape"/>
    </filter>
    <clipPath id="clip0">
    <rect width="32" height="32" fill="white" transform="translate(17 13)"/>
    </clipPath>
    </defs>
    </svg>
    