<svg width="13" height="13" viewBox="0 0 13 13" fill="none" xmlns="http://www.w3.org/2000/svg">
    <g clip-path="url(#clip0)">
    <path d="M9.31236 12.9272H1.54454C0.731842 12.9272 0.0712891 12.2667 0.0712891 11.454V3.68614C0.0712891 2.87344 0.731842 2.21289 1.54454 2.21289H6.09807C6.31986 2.21289 6.49986 2.39289 6.49986 2.61468C6.49986 2.83646 6.31986 3.01646 6.09807 3.01646H1.54454C1.17542 3.01646 0.87486 3.31702 0.87486 3.68614V11.454C0.87486 11.8231 1.17542 12.1236 1.54454 12.1236H9.31236C9.68148 12.1236 9.98204 11.8231 9.98204 11.454V6.90042C9.98204 6.67864 10.162 6.49864 10.3838 6.49864C10.6056 6.49864 10.7856 6.67815 10.7856 6.90042V11.454C10.7856 12.2667 10.1251 12.9272 9.31236 12.9272Z" fill="#52A9DD"/>
    <path d="M4.77023 8.62986C4.66468 8.62986 4.56178 8.58807 4.48625 8.51205C4.3909 8.4172 4.3502 8.28055 4.37648 8.14931L4.75522 6.25505C4.77072 6.17687 4.80927 6.10555 4.86498 6.04984L10.4135 0.502036C10.9877 -0.0722934 11.922 -0.0722934 12.4969 0.502036C12.7748 0.78003 12.9281 1.14974 12.9281 1.54348C12.9281 1.93722 12.7748 2.30684 12.4963 2.58493L6.94846 8.13332C6.89275 8.18952 6.82094 8.22758 6.74325 8.24308L4.84949 8.62182C4.8232 8.62721 4.79642 8.62986 4.77023 8.62986ZM6.66449 7.84934H6.66988H6.66449ZM5.51916 6.53206L5.28286 7.71593L6.46624 7.47914L11.9284 2.01707C12.0548 1.89004 12.1245 1.7224 12.1245 1.54348C12.1245 1.36456 12.0548 1.19682 11.9284 1.06989C11.6681 0.808967 11.2432 0.808967 10.9813 1.06989L5.51916 6.53206Z" fill="#52A9DD"/>
    <path d="M11.4552 3.46011C11.3524 3.46011 11.2495 3.42097 11.1713 3.34221L9.65628 1.82668C9.49934 1.66973 9.49934 1.41528 9.65628 1.25834C9.81323 1.10139 10.0677 1.10139 10.2247 1.25834L11.7397 2.77386C11.8966 2.93081 11.8966 3.18526 11.7397 3.34221C11.6609 3.42048 11.5581 3.46011 11.4552 3.46011Z" fill="#52A9DD"/>
    </g>
    <defs>
    <clipPath id="clip0">
    <rect width="12.8571" height="12.8571" fill="white" transform="translate(0.0712891 0.0712891)"/>
    </clipPath>
    </defs>
    </svg>
    