<svg width="14" height="14" viewBox="0 0 14 14" fill="none" xmlns="http://www.w3.org/2000/svg">
    <path d="M11.6665 11.5212H2.33317C1.90819 11.5196 1.50106 11.3501 1.20055 11.0496C0.900044 10.7491 0.730541 10.342 0.729004 9.91699V4.08366C0.730541 3.65868 0.900044 3.25155 1.20055 2.95104C1.50106 2.65053 1.90819 2.48103 2.33317 2.47949H11.6665C12.0915 2.48103 12.4986 2.65053 12.7991 2.95104C13.0996 3.25155 13.2691 3.65868 13.2707 4.08366V9.91699C13.2691 10.342 13.0996 10.7491 12.7991 11.0496C12.4986 11.3501 12.0915 11.5196 11.6665 11.5212ZM2.33317 3.35449C2.13978 3.35449 1.95432 3.43131 1.81757 3.56806C1.68083 3.70481 1.604 3.89027 1.604 4.08366V9.91699C1.604 10.1104 1.68083 10.2958 1.81757 10.4326C1.95432 10.5693 2.13978 10.6462 2.33317 10.6462H11.6665C11.8599 10.6462 12.0454 10.5693 12.1821 10.4326C12.3188 10.2958 12.3957 10.1104 12.3957 9.91699V4.08366C12.3957 3.89027 12.3188 3.70481 12.1821 3.56806C12.0454 3.43131 11.8599 3.35449 11.6665 3.35449H2.33317Z" fill="#52A9DD"/>
    <path d="M7.00017 7.78778C6.66166 7.78778 6.32931 7.69714 6.03767 7.52528L0.94517 4.49778C0.850025 4.43848 0.780879 4.34533 0.751655 4.2371C0.722432 4.12886 0.7353 4.01357 0.78767 3.91444C0.845913 3.81808 0.939506 3.74828 1.04848 3.71995C1.15746 3.69161 1.2732 3.70698 1.371 3.76278L6.46934 6.78444C6.62396 6.87875 6.80156 6.92864 6.98267 6.92864C7.16378 6.92864 7.34139 6.87875 7.496 6.78444L12.5943 3.76278C12.6921 3.70698 12.8079 3.69161 12.9169 3.71995C13.0258 3.74828 13.1194 3.81808 13.1777 3.91444C13.23 4.01357 13.2429 4.12886 13.2137 4.2371C13.1845 4.34533 13.1153 4.43848 13.0202 4.49778L7.96267 7.52528C7.67103 7.69714 7.33869 7.78778 7.00017 7.78778Z" fill="#52A9DD"/>
    </svg>
    