<svg width="32" height="33" viewBox="0 0 32 33" fill="none" xmlns="http://www.w3.org/2000/svg">
<g clip-path="url(#clip0_1836_130718)">
<path d="M28.5392 5.02047L28.2204 3.77431C27.8573 2.35514 26.3662 1.4697 24.9451 1.83354L19.912 3.1212L19.7299 2.40927C19.433 1.24912 18.2118 0.524007 17.0502 0.821467L11.8861 2.14257C10.7259 2.4394 10.001 3.66061 10.2982 4.8222L10.4803 5.53413L8.03538 6.15961C7.70092 6.24512 7.49921 6.58558 7.58478 6.92004C7.67035 7.25451 8.01082 7.45627 8.34528 7.37064L19.6163 4.48718C19.6166 4.48711 25.255 3.04457 25.255 3.04457C26.0161 2.85012 26.8151 3.32497 27.0094 4.08415L27.1732 4.72476L4.88127 10.4277C4.88127 10.4277 4.69376 9.68162 4.68576 9.62331C4.63881 9.28122 4.32342 9.04226 3.98152 9.08902C3.63949 9.13596 3.40035 9.45129 3.44729 9.79326C3.4616 9.89783 3.82513 11.3431 3.82513 11.3431C3.89738 11.6256 4.15153 11.8133 4.43024 11.8133C4.48155 11.8133 6.22706 11.3738 6.22706 11.3738L7.86412 28.0622C7.97687 29.2235 8.9362 30.1006 10.1002 30.1121V32.1296C10.1002 32.4748 10.3801 32.7547 10.7253 32.7547H23.4303C23.7756 32.7547 24.0554 32.4748 24.0554 32.1296V30.1121C25.2194 30.1006 26.1787 29.2235 26.2914 28.0629L27.1346 19.4699C27.1683 19.1263 26.9171 18.8204 26.5735 18.7867C26.2302 18.7537 25.9241 19.0042 25.8904 19.3478L25.0472 27.9414C24.9962 28.4665 24.5599 28.8625 24.0323 28.8625H10.1232C9.59562 28.8625 9.15928 28.4665 9.10821 27.9407L7.45234 11.0602L7.76155 10.9812H26.7113L26.4274 13.874C26.3937 14.2175 26.6449 14.5234 26.9885 14.5571C27.3314 14.5901 27.6378 14.3397 27.6716 13.9961L28.0227 10.4171C28.058 10.0582 27.7624 9.731 27.4007 9.731H26.6181L26.4719 9.42729C25.9041 8.24714 24.6744 7.47384 23.3643 7.47384C22.8966 7.47384 22.4223 7.50471 21.9736 7.3452L28.0886 5.78077C28.4156 5.6972 28.623 5.34824 28.5392 5.02047ZM11.6126 3.79081C11.7423 3.57198 11.9494 3.41672 12.1959 3.35366L17.36 2.03249C17.4388 2.01237 17.5185 2.00243 17.5977 2.00243C17.7664 2.00243 17.9326 2.04762 18.0816 2.13588C18.3004 2.26557 18.4557 2.47271 18.5187 2.71917L18.7009 3.43104L11.6913 5.22429L11.5092 4.51237C11.4462 4.26585 11.4829 4.00964 11.6126 3.79081ZM22.8053 31.5046H11.3503V30.1128H22.8053V31.5046ZM23.3643 8.72405C24.1031 8.72405 24.8118 9.11002 25.212 9.73094H12.654L19.2805 8.03775C19.7709 7.91062 20.2942 7.9575 20.7543 8.16989V8.16995L21.2661 8.40628C21.9404 8.71768 22.6405 8.72405 23.3643 8.72405Z" fill="#677790"/>
<path d="M22.4697 23.5808C22.7894 23.0272 22.7894 22.3661 22.4697 21.8125L21.3399 19.8556C21.1673 19.5567 20.785 19.4541 20.4861 19.6268C20.1871 19.7995 20.0847 20.1817 20.2573 20.4807L21.3872 22.4376C21.5862 22.7824 21.3298 23.2148 20.9384 23.2148H19.808L19.8323 23.1821C20.0382 22.905 19.9804 22.5135 19.7033 22.3076C19.4263 22.1018 19.0348 22.1595 18.8288 22.4366L18.0632 23.4671C17.9016 23.6844 17.9009 23.9909 18.0607 24.2093L18.8157 25.2397C18.9382 25.4068 19.128 25.4954 19.3204 25.4954C19.4486 25.4954 19.578 25.456 19.6893 25.3745C19.9678 25.1704 20.0281 24.7793 19.8241 24.5008L19.7977 24.4648H20.9384C21.5777 24.4648 22.1501 24.1343 22.4697 23.5808Z" fill="#677790"/>
<path d="M11.8813 23.5808C12.201 24.1344 12.7734 24.4649 13.4126 24.4649H15.8283C16.1735 24.4649 16.4534 24.185 16.4534 23.8399C16.4534 23.4947 16.1735 23.2148 15.8283 23.2148H13.4126C13.0213 23.2148 12.7649 22.7824 12.964 22.4376L13.5483 21.4256L13.5591 21.4509C13.6607 21.688 13.8914 21.83 14.134 21.83C14.2161 21.83 14.2996 21.8137 14.3798 21.7793C14.6972 21.6433 14.8442 21.2759 14.7082 20.9586L14.2058 19.7856C14.0991 19.5366 13.8342 19.382 13.565 19.4103L12.2864 19.5466C11.9431 19.5832 11.6946 19.8911 11.7311 20.2344C11.7677 20.5776 12.0756 20.8266 12.4189 20.7897L12.4754 20.7837L11.8814 21.8125C11.5617 22.3661 11.5617 23.0272 11.8813 23.5808Z" fill="#677790"/>
<path d="M17.5568 17.4935C17.5009 17.8341 17.7316 18.1556 18.0723 18.2115L19.3315 18.4183C19.5998 18.4621 19.8753 18.3202 19.9949 18.0748L20.5647 16.9283C20.7183 16.6192 20.5923 16.244 20.2832 16.0904C19.974 15.9366 19.5989 16.0628 19.4453 16.372L19.3916 16.48L18.7073 15.2949C18.039 14.1373 16.3134 14.1368 15.6447 15.2949L14.4452 17.3725C14.2726 17.6715 14.375 18.0537 14.674 18.2264C14.973 18.3991 15.3552 18.2966 15.5278 17.9976L16.7273 15.9199C16.9244 15.5785 17.4276 15.5785 17.6247 15.9199L18.2328 16.9732C17.9082 16.9422 17.6104 17.1669 17.5568 17.4935Z" fill="#677790"/>
<path d="M27.3601 16.4111C27.2291 16.097 26.8587 15.9421 26.5438 16.0729C26.2292 16.2035 26.0753 16.5744 26.2056 16.8893C26.3358 17.2037 26.7073 17.3581 27.0219 17.2274C27.3359 17.0969 27.491 16.7257 27.3601 16.4111Z" fill="#677790"/>
<path d="M6.17941 7.18816C6.04846 6.87413 5.67806 6.71925 5.3631 6.85001C5.04851 6.98058 4.89462 7.35154 5.02495 7.66638C5.15514 7.98084 5.52667 8.13523 5.84126 8.00453C6.15528 7.87402 6.31035 7.5028 6.17941 7.18816Z" fill="#677790"/>
</g>
<defs>
<clipPath id="clip0_1836_130718">
<rect width="32" height="32" fill="white" transform="translate(0 0.754639)"/>
</clipPath>
</defs>
</svg>
