<svg width="93" height="93" viewBox="0 0 93 93" fill="none" xmlns="http://www.w3.org/2000/svg">
<g clip-path="url(#clip0_2122_170038)">
<path d="M78.9378 18.5834L66.5222 12.3223C58.0264 8.03778 48.4572 6.35047 39.009 7.47097L25.2001 9.10796C23.1188 9.35455 21.2691 10.5518 20.191 12.3493L11.0317 27.6204C4.24854 38.93 5.68193 53.3488 14.5585 63.1011L29.3688 79.3729C34.868 85.4153 43.7543 86.9822 50.9885 83.185L70.4709 72.96C82.1476 66.8318 88.4261 53.7728 85.9201 40.8253L82.5368 23.3425C82.138 21.2846 80.8092 19.5269 78.9378 18.5834Z" fill="url(#paint0_linear_2122_170038)"/>
<path d="M70.4124 29.833C66.1743 23.5419 59.4857 18.9135 51.4252 17.4922C35.6757 14.7151 20.6569 25.2314 17.8799 40.9809C16.4586 49.0413 18.5202 56.9096 22.9823 63.0444L38.1188 84.6615C42.3337 85.7586 46.922 85.3188 50.9877 83.1848L70.4702 72.9598C78.7362 68.6212 84.2964 60.8096 85.9505 52.0229L70.4124 29.833Z" fill="url(#paint1_linear_2122_170038)"/>
<path d="M13.2305 61.5361C13.6527 62.0692 14.0943 62.5914 14.5574 63.1001L29.3678 79.3719C34.8675 85.4144 43.7532 86.9812 50.9874 83.184L70.4698 72.959C71.079 72.6394 71.6725 72.2997 72.2523 71.9433L13.2305 61.5361Z" fill="url(#paint2_linear_2122_170038)"/>
<path d="M74.9139 51.0375C72.1368 66.787 57.1181 77.3033 41.3686 74.5262C25.6191 71.7491 15.1028 56.7304 17.8799 40.9809C20.6569 25.2314 35.6757 14.7151 51.4252 17.4922C67.1747 20.2692 77.691 35.288 74.9139 51.0375Z" fill="url(#paint3_linear_2122_170038)"/>
<path d="M46.0365 74.9659L31.479 59.1167L29.5017 48.4997L43.5017 30.4998L52.502 29.9998L58.1502 29.9995L74.9199 50.1055C74.4714 54.6471 74.0018 54.7702 74.0018 54.7702C70.1584 66.9317 58.7271 75.14 46.0365 74.9659Z" fill="url(#paint4_linear_2122_170038)"/>
<path d="M43.999 56.3483C45.0613 56.5356 46.0743 55.8263 46.2617 54.764C46.449 53.7017 45.7397 52.6887 44.6774 52.5014C43.6151 52.3141 42.6021 53.0234 42.4147 54.0857C42.2274 55.148 42.9368 56.161 43.999 56.3483Z" fill="url(#paint5_linear_2122_170038)"/>
<path d="M49.4735 25.304C38.588 23.3846 28.224 30.6402 26.3044 41.5272C24.385 52.4127 31.6406 62.7767 42.5276 64.6963C53.4131 66.6157 63.777 59.3601 65.6967 48.4731C67.6161 37.5876 60.3605 27.2237 49.4735 25.304ZM43.0702 61.6188C33.8856 59.9993 27.7622 51.2557 29.3819 42.0699C31.0014 32.8852 39.745 26.7618 48.9308 28.3815C58.1155 30.001 64.2389 38.7446 62.6192 47.9305C60.9997 57.1151 52.2561 63.2385 43.0702 61.6188Z" fill="url(#paint6_linear_2122_170038)"/>
<path d="M47.7293 35.1903C44.3354 34.5918 41.0874 36.8661 40.4889 40.26C40.3391 41.1099 40.9065 41.9203 41.7564 42.0701C42.6062 42.22 43.4166 41.6525 43.5664 40.8027C43.8657 39.1057 45.4897 37.9686 47.1866 38.2678C48.8836 38.567 50.0207 40.191 49.7215 41.888C49.4223 43.5849 47.7983 44.7221 46.1013 44.4229C45.2515 44.273 44.4411 44.8404 44.2912 45.6903L43.6129 49.5372C43.4631 50.3871 44.0305 51.1974 44.8804 51.3473C45.7302 51.4971 46.5406 50.9297 46.6904 50.0798L47.1318 47.577C49.9043 47.3596 52.2942 45.2934 52.799 42.4306C53.3975 39.0367 51.1232 35.7887 47.7293 35.1903Z" fill="url(#paint7_linear_2122_170038)"/>
</g>
<defs>
<linearGradient id="paint0_linear_2122_170038" x1="33.3888" y1="21.2733" x2="59.8012" y2="58.9941" gradientUnits="userSpaceOnUse">
<stop stop-color="#ECF7FF"/>
<stop offset="1" stop-color="#C2E0FF"/>
</linearGradient>
<linearGradient id="paint1_linear_2122_170038" x1="74.9276" y1="86.7554" x2="55.4951" y2="59.0029" gradientUnits="userSpaceOnUse">
<stop offset="0.0029" stop-color="#C2E0FF" stop-opacity="0"/>
<stop offset="0.0763" stop-color="#BFDCFD" stop-opacity="0.07451"/>
<stop offset="1" stop-color="#9EB2E7"/>
</linearGradient>
<linearGradient id="paint2_linear_2122_170038" x1="42.2384" y1="69.5909" x2="39.7459" y2="83.7262" gradientUnits="userSpaceOnUse">
<stop offset="0.0029" stop-color="#C2E0FF" stop-opacity="0"/>
<stop offset="0.0763" stop-color="#BFDCFD" stop-opacity="0.07451"/>
<stop offset="1" stop-color="#9EB2E7"/>
</linearGradient>
<linearGradient id="paint3_linear_2122_170038" x1="36.0576" y1="31.2435" x2="59.112" y2="64.1683" gradientUnits="userSpaceOnUse">
<stop stop-color="#76CCF8"/>
<stop offset="0.833" stop-color="#518EF8"/>
<stop offset="1" stop-color="#4981F8"/>
</linearGradient>
<linearGradient id="paint4_linear_2122_170038" x1="45.5015" y1="44" x2="66.1729" y2="68.22" gradientUnits="userSpaceOnUse">
<stop stop-color="#4071F7" stop-opacity="0"/>
<stop offset="1" stop-color="#30569F"/>
</linearGradient>
<linearGradient id="paint5_linear_2122_170038" x1="44.0225" y1="56.2152" x2="44.6512" y2="52.6495" gradientUnits="userSpaceOnUse">
<stop stop-color="#EEF4FF"/>
<stop offset="1" stop-color="#CFE7FD"/>
</linearGradient>
<linearGradient id="paint6_linear_2122_170038" x1="42.7679" y1="63.3332" x2="49.206" y2="26.8209" gradientUnits="userSpaceOnUse">
<stop stop-color="#EEF4FF"/>
<stop offset="1" stop-color="#CFE7FD"/>
</linearGradient>
<linearGradient id="paint7_linear_2122_170038" x1="44.9789" y1="50.7882" x2="47.6196" y2="35.8125" gradientUnits="userSpaceOnUse">
<stop stop-color="#EEF4FF"/>
<stop offset="1" stop-color="#CFE7FD"/>
</linearGradient>
<clipPath id="clip0_2122_170038">
<rect width="80" height="80" fill="white" transform="translate(13.8926) rotate(10)"/>
</clipPath>
</defs>
</svg>
