<svg width="32" height="32" viewBox="0 0 32 32" fill="none" xmlns="http://www.w3.org/2000/svg">
<path d="M28.2982 20.7242L27.2142 18.7722L24.8835 20.0682L25.9662 22.0162C26.0302 22.1296 26.0755 22.2469 26.1048 22.3682C26.1538 22.5886 26.1474 22.8176 26.0862 23.0349C26.0538 23.1449 26.0072 23.2503 25.9475 23.3482C25.835 23.5409 25.6759 23.7023 25.4848 23.8176C25.278 23.9404 25.0413 24.0036 24.8008 24.0002H18.6662V21.3336L13.3328 25.3336L18.6662 29.3336V26.6669H24.8008C25.1715 26.6669 25.5368 26.6176 25.8822 26.5216C26.5492 26.3375 27.1559 25.9806 27.6408 25.4869C27.8782 25.2482 28.0835 24.9802 28.2488 24.6962C28.775 23.807 28.9356 22.7482 28.6968 21.7429C28.6087 21.3875 28.4747 21.0451 28.2982 20.7242ZM7.8155 14.7189L4.7355 20.8789C4.57601 21.1978 4.45901 21.5363 4.3875 21.8856C4.25721 22.5398 4.29279 23.2163 4.49098 23.8532C4.68918 24.4902 5.04368 25.0674 5.52217 25.5322C5.7595 25.7642 6.0235 25.9669 6.3155 26.1362C6.92421 26.484 7.61312 26.6669 8.31417 26.6669H10.6662V24.0002H8.31417C8.08072 24.0009 7.85108 23.9412 7.6475 23.8269C7.45306 23.7151 7.2909 23.5547 7.17683 23.3616C7.05977 23.1733 6.99149 22.9589 6.97817 22.7376C6.97173 22.6281 6.9798 22.5183 7.00217 22.4109C7.02617 22.2949 7.06617 22.1802 7.12083 22.0696L10.1288 16.0536L12.2608 17.2842L11.4635 10.6669L5.33283 13.2856L7.8155 14.7189ZM24.7968 17.2856L25.5942 10.6669L23.4102 11.9269L19.6195 5.10424C19.3549 4.61898 18.991 4.19493 18.5515 3.85974C18.112 3.52455 17.6068 3.28575 17.0688 3.15891C16.7314 3.08073 16.3858 3.04357 16.0395 3.04824C15.3345 3.06146 14.6455 3.26062 14.0422 3.62558C13.3982 4.01647 12.8791 4.58313 12.5462 5.25891L11.5702 7.21091L13.9555 8.40424L14.9315 6.45091C14.9915 6.33091 15.0662 6.22291 15.1528 6.12824C15.3117 5.95482 15.5165 5.82999 15.7435 5.76824C15.9739 5.70317 16.2172 5.69812 16.4502 5.75358C16.6281 5.79535 16.7952 5.87465 16.94 5.98618C17.0849 6.0977 17.2043 6.23887 17.2902 6.40024L21.1008 13.2616L18.6662 14.6669L24.7968 17.2856Z" fill="white"/>
</svg>
