<svg width="17" height="17" viewBox="0 0 17 17" fill="none" xmlns="http://www.w3.org/2000/svg">
<path d="M15.9055 0.25H1.15625C0.811035 0.25 0.53125 0.529785 0.53125 0.875C0.53125 2.61548 1.27734 4.2771 2.57824 5.43347L5.31542 7.86633C5.79003 8.28821 6.06225 8.89441 6.06225 9.52954V15.6243C6.06225 16.1223 6.61889 16.4209 7.03381 16.1442L10.7212 13.686C10.895 13.5701 10.9995 13.375 10.9995 13.166V9.52954C10.9995 8.89441 11.2717 8.28821 11.7463 7.86633L14.4834 5.43347C15.7843 4.2771 16.5304 2.61548 16.5304 0.875C16.5304 0.529785 16.2506 0.25 15.9055 0.25ZM13.6529 4.49915L10.9159 6.93213C10.1747 7.59107 9.7495 8.53772 9.7495 9.52942V12.8315L7.31213 14.4564V9.52954C7.31213 8.53772 6.88695 7.59107 6.14574 6.93213L3.40869 4.49927C2.53149 3.71936 1.97156 2.65076 1.82165 1.49988H15.24C15.0901 2.65076 14.5303 3.71936 13.6529 4.49915Z" fill="#677790"/>
</svg>
