<svg width="48" height="48" viewBox="0 0 48 48" fill="none" xmlns="http://www.w3.org/2000/svg">
<path d="M39.224 36.3667H31.0143V38.5212H4.43059C3.99881 38.5212 3.64868 38.8428 3.64868 39.2395V40.6758C3.64868 41.0724 3.99881 41.394 4.43059 41.394H39.224V36.3667Z" fill="#625D6B"/>
<path d="M31.4704 38.6518C32.0254 38.4649 32.1514 37.7172 32.3826 37.4835V37.2499C23.7497 36.7046 6.39138 35.8479 6.0214 36.7825C5.65142 37.7172 6.48388 38.4182 6.94635 38.6518C14.7314 38.6518 30.9155 38.8388 31.4704 38.6518Z" fill="#504B5A"/>
<path d="M25.7693 20.3705C28.6883 20.7362 30.7863 26.769 31.4705 29.7397L28.962 29.5112C27.5937 22.1987 18.6999 19.4565 18.2438 20.5991C17.8789 21.5131 16.7235 21.437 15.9633 21.0561L5.47314 18.9994L11.5408 18.8909L10.2621 17.6284L7.52557 18.5424L6.38533 18.3139L10.2621 16.7143L12.3602 18.8762L18.2438 18.7709C21.3604 19.1518 22.8503 20.0049 25.7693 20.3705Z" fill="#159AD3"/>
<path d="M7.47849 22.6782L7.83526 18.5602C6.2298 18.1026 3.05457 17.9653 3.19728 21.0768C3.37566 24.966 8.54879 24.966 8.19202 24.5085C7.90661 24.1424 7.59741 23.1358 7.47849 22.6782Z" fill="#159AD3"/>
<path d="M34.9835 26.312L5.72054 28.1774C5.31507 28.1774 3.86337 28.4106 2.04614 28.4106L0.456055 33.8932C0.456055 34.1625 3.45791 37.0382 3.86337 37.0382L32.9391 37.7378C34.0749 34.7064 34.0749 34.2761 34.0749 34.0069L34.7564 28.6438C34.7563 28.3745 35.389 26.312 34.9835 26.312Z" fill="#159AD3"/>
<path d="M8.20972 37.0522L11.8585 29.0542H15.2792L11.8585 37.0522H8.20972Z" fill="#29AAE2"/>
<path d="M16.4194 37.7378L20.1712 28.38L23.2608 28.1401L19.7298 37.7378H16.4194Z" fill="#29AAE2"/>
<path d="M23.4888 37.2807L27.1375 28.1401L30.3302 27.9116L26.6814 37.2807H23.4888Z" fill="#29AAE2"/>
<path d="M42.9065 25.3979H37.7255C37.2937 25.3979 36.9436 25.7142 36.9436 26.1043V36.699C36.9436 37.0891 37.2937 37.4054 37.7255 37.4054H39.6802V40.937H47.8899V35.8916C47.8899 35.0246 47.7132 34.1651 47.3687 33.356L44.366 26.3035C44.1337 25.7578 43.5535 25.3979 42.9065 25.3979Z" fill="#29AAE2"/>
<path d="M33.2947 26.312L2.0523 28.2476L1.36816 29.9682H2.0523L32.8386 28.0326L33.2947 26.312Z" fill="#29AAE2"/>
<path d="M47.1511 37.1468H39.3896V40.8504H47.1511V37.1468Z" fill="#159AD3"/>
<path d="M8.62673 44.6152C10.4978 44.6152 12.0147 43.0953 12.0147 41.2203C12.0147 39.3453 10.4978 37.8254 8.62673 37.8254C6.75561 37.8254 5.23877 39.3453 5.23877 41.2203C5.23877 43.0953 6.75561 44.6152 8.62673 44.6152Z" fill="#EDEDEE"/>
<path d="M8.62658 45.4286C6.38472 45.4286 4.56104 43.6011 4.56104 41.3547C4.56104 39.1082 6.38472 37.2807 8.62658 37.2807C10.8684 37.2807 12.6921 39.1082 12.6921 41.3547C12.6921 43.6011 10.8684 45.4286 8.62658 45.4286ZM8.62658 38.7622C7.19981 38.7622 6.03939 39.9249 6.03939 41.3547C6.03939 42.7845 7.19972 43.9473 8.62658 43.9473C10.0534 43.9473 11.2138 42.7845 11.2138 41.3547C11.2138 39.9249 10.0534 38.7622 8.62658 38.7622Z" fill="#504B5A"/>
<path d="M8.62704 42.837C9.44352 42.837 10.1054 42.1737 10.1054 41.3556C10.1054 40.5374 9.44352 39.8742 8.62704 39.8742C7.81057 39.8742 7.14868 40.5374 7.14868 41.3556C7.14868 42.1737 7.81057 42.837 8.62704 42.837Z" fill="#DCDBDE"/>
<path d="M39.3892 44.6152C41.2603 44.6152 42.7771 43.0953 42.7771 41.2203C42.7771 39.3453 41.2603 37.8254 39.3892 37.8254C37.5181 37.8254 36.0012 39.3453 36.0012 41.2203C36.0012 43.0953 37.5181 44.6152 39.3892 44.6152Z" fill="#EDEDEE"/>
<path d="M39.389 45.2932C37.1472 45.2932 35.3235 43.4658 35.3235 41.2193C35.3235 38.9728 37.1472 37.1454 39.389 37.1454C41.6309 37.1454 43.4546 38.9728 43.4546 41.2193C43.4545 43.4658 41.6309 45.2932 39.389 45.2932ZM39.389 38.6269C37.9623 38.6269 36.8018 39.7896 36.8018 41.2194C36.8018 42.6492 37.9622 43.8119 39.389 43.8119C40.8159 43.8119 41.9762 42.6492 41.9762 41.2194C41.9762 39.7896 40.8158 38.6269 39.389 38.6269Z" fill="#504B5A"/>
<path d="M39.3892 42.7016C40.2057 42.7016 40.8676 42.0384 40.8676 41.2202C40.8676 40.4021 40.2057 39.7388 39.3892 39.7388C38.5728 39.7388 37.9109 40.4021 37.9109 41.2202C37.9109 42.0384 38.5728 42.7016 39.3892 42.7016Z" fill="#DCDBDE"/>
<path d="M46.4112 41.59H47.1504C47.5586 41.59 47.8896 41.2583 47.8896 40.8492V39.3678C47.8896 38.9588 47.5586 38.6271 47.1504 38.6271H46.4112C46.003 38.6271 45.672 38.9588 45.672 39.3678V40.8492C45.672 41.2584 46.0029 41.59 46.4112 41.59Z" fill="#625D6B"/>
<path d="M47.2608 35.4526H48V37.6748H47.2608C46.8526 37.6748 46.5216 37.3431 46.5216 36.934V36.1933C46.5216 35.7842 46.8525 35.4526 47.2608 35.4526Z" fill="#EDEDEE"/>
<path d="M42.5996 26.769H39.1171C38.6724 26.769 38.3118 27.0906 38.3118 27.4872V31.0781C38.3118 31.4748 38.6724 31.7964 39.1171 31.7964H45.0268C45.4352 31.7964 45.7165 31.4311 45.5699 31.0912L44.1031 27.6897C43.8637 27.1349 43.266 26.769 42.5996 26.769Z" fill="#625D6B"/>
<path d="M25.7138 38.6286H30.8881C31.2963 38.6286 31.6273 38.9603 31.6273 39.3694V41.5915C31.6273 42.0006 31.2963 42.3323 30.8881 42.3323H25.7138C25.3056 42.3323 24.9746 42.0006 24.9746 41.5915V39.3694C24.9747 38.9602 25.3056 38.6286 25.7138 38.6286Z" fill="#8D8A94"/>
<path d="M26.4533 40.851C26.8616 40.851 27.1926 40.5194 27.1926 40.1103C27.1926 39.7012 26.8616 39.3695 26.4533 39.3695C26.0451 39.3695 25.7141 39.7012 25.7141 40.1103C25.7141 40.5194 26.0451 40.851 26.4533 40.851Z" fill="#625D6B"/>
<path d="M16.8362 44.7506C18.7073 44.7506 20.2242 43.2306 20.2242 41.3557C20.2242 39.4807 18.7073 37.9607 16.8362 37.9607C14.9651 37.9607 13.4482 39.4807 13.4482 41.3557C13.4482 43.2306 14.9651 44.7506 16.8362 44.7506Z" fill="#EDEDEE"/>
<path d="M16.8361 45.4286C14.5942 45.4286 12.7705 43.6011 12.7705 41.3547C12.7705 39.1082 14.5942 37.2807 16.8361 37.2807C19.0779 37.2807 20.9016 39.1082 20.9016 41.3547C20.9016 43.6011 19.0779 45.4286 16.8361 45.4286ZM16.8361 38.7622C15.4093 38.7622 14.2489 39.9249 14.2489 41.3547C14.2489 42.7845 15.4092 43.9473 16.8361 43.9473C18.2629 43.9473 19.4232 42.7845 19.4232 41.3547C19.4232 39.9249 18.2628 38.7622 16.8361 38.7622Z" fill="#504B5A"/>
<path d="M16.8363 42.837C17.6527 42.837 18.3146 42.1737 18.3146 41.3556C18.3146 40.5374 17.6527 39.8742 16.8363 39.8742C16.0198 39.8742 15.3579 40.5374 15.3579 41.3556C15.3579 42.1737 16.0198 42.837 16.8363 42.837Z" fill="#DCDBDE"/>
<path d="M29.874 37.5093L33.0667 25.6264L34.2069 22.1987H40.8203L40.3642 23.1127L36.4874 23.7983L36.0313 25.6264L33.0667 37.5093L31.0143 37.7378L29.874 37.5093Z" fill="#29AAE2" stroke="#29AAE2" stroke-linejoin="round"/>
<path d="M5.47312 29.2827L3.19266 36.3667L1.59633 34.9956L0 33.396L1.14023 29.9682L1.82437 28.1401L5.47312 29.2827Z" fill="#29AAE2"/>
<path d="M31.2424 40.7085H32.8388V42.5366" stroke="#159AD3" stroke-width="2"/>
<path d="M23.9448 38.4233V40.7085H31.4704V38.4233" stroke="#159AD3" stroke-width="2"/>
<path d="M24.8571 40.7085H23.2607V42.7651H34.435" stroke="#159AD3" stroke-width="2"/>
</svg>
