<svg width="19" height="21" viewBox="0 0 19 21" fill="none" xmlns="http://www.w3.org/2000/svg">
    <path fill-rule="evenodd" clip-rule="evenodd"
          d="M13.158 0.999969C13.158 0.999969 5.481 1.00397 5.469 1.00397C2.709 1.02097 1 2.83697 1 5.60697V14.803C1 17.587 2.722 19.41 5.506 19.41C5.506 19.41 13.182 19.407 13.195 19.407C15.955 19.39 17.665 17.573 17.665 14.803V5.60697C17.665 2.82297 15.942 0.999969 13.158 0.999969Z"
          stroke="white" stroke-width="1.5" stroke-linecap="round" stroke-linejoin="round"/>
    <path d="M4.77813 16V14.65C5.24613 14.182 5.60613 13.702 5.85813 13.21C6.11013 12.706 6.23613 12.058 6.23613 11.266C6.23613 11.062 6.21813 10.852 6.18213 10.636H4.13013V9.05196H5.67813C5.57013 8.73996 5.47413 8.41596 5.39013 8.07996C5.31813 7.74396 5.28213 7.38996 5.28213 7.01796C5.28213 6.22596 5.45013 5.54196 5.78613 4.96596C6.13413 4.38996 6.61413 3.95196 7.22613 3.65196C7.85013 3.33996 8.56413 3.18396 9.36813 3.18396C10.2801 3.18396 11.0361 3.35796 11.6361 3.70596C12.2361 4.05396 12.6921 4.52196 13.0041 5.10996C13.3161 5.69796 13.4901 6.35196 13.5261 7.07196H11.4021C11.3781 6.50796 11.1981 6.03996 10.8621 5.66796C10.5261 5.28396 10.0401 5.09196 9.40413 5.09196C8.87613 5.09196 8.42013 5.25396 8.03613 5.57796C7.65213 5.90196 7.46013 6.40596 7.46013 7.08996C7.46013 7.40196 7.50813 7.72596 7.60413 8.06196C7.70013 8.38596 7.80813 8.71596 7.92813 9.05196H11.2941V10.636H8.36013C8.39613 10.852 8.41413 11.062 8.41413 11.266C8.41413 11.758 8.31813 12.256 8.12613 12.76C7.93413 13.264 7.61613 13.732 7.17213 14.164H13.5801V16H4.77813Z"
          fill="white"/>
</svg>
