<svg width="32" height="32" viewBox="0 0 32 32" fill="none" xmlns="http://www.w3.org/2000/svg">
    <path d="M9.33366 29.3333H5.33366C4.62641 29.3333 3.94814 29.0524 3.44804 28.5523C2.94794 28.0522 2.66699 27.3739 2.66699 26.6667V17.3333C2.66699 16.6261 2.94794 15.9478 3.44804 15.4477C3.94814 14.9476 4.62641 14.6667 5.33366 14.6667H9.33366M18.667 12V6.66666C18.667 5.60579 18.2456 4.58838 17.4954 3.83823C16.7453 3.08808 15.7279 2.66666 14.667 2.66666L9.33366 14.6667V29.3333H24.3737C25.0168 29.3406 25.6408 29.1152 26.1309 28.6987C26.6209 28.2821 26.9439 27.7025 27.0403 27.0667L28.8803 15.0667C28.9383 14.6845 28.9126 14.2942 28.8048 13.923C28.697 13.5518 28.5098 13.2084 28.2561 12.9167C28.0025 12.625 27.6884 12.3919 27.3358 12.2336C26.9831 12.0753 26.6002 11.9956 26.2137 12H18.667Z" stroke="white" stroke-width="2" stroke-linecap="round" stroke-linejoin="round"/>
    </svg>
    