<svg width="18" height="18" viewBox="0 0 18 18" fill="none" xmlns="http://www.w3.org/2000/svg">
<path fill-rule="evenodd" clip-rule="evenodd" d="M2.9067 9.49205C3.03228 9.70963 3.26441 9.84364 3.51564 9.84364C3.76686 9.84364 3.999 9.70959 4.12457 9.49205L6.56222 5.26904C6.86906 4.73752 7.0312 4.13118 7.0312 3.5156C7.0312 1.5771 5.4541 0 3.5156 0C1.5771 0 0 1.5771 0 3.5156C0 4.13118 0.162175 4.73755 0.468981 5.26908L2.9067 9.49205ZM3.51564 1.4062C4.67874 1.4062 5.625 2.35246 5.625 3.51556C5.625 3.8847 5.52793 4.24793 5.34435 4.56603L3.51564 7.73407L1.68693 4.56603C1.50334 4.24797 1.40628 3.8847 1.40628 3.51556C1.40628 2.35246 2.35253 1.4062 3.51564 1.4062ZM13.0781 5.4834C11.915 5.4834 10.9688 6.42966 10.9688 7.59277C10.9688 8.75588 11.915 9.70214 13.0781 9.70214C14.2412 9.70214 15.1875 8.75588 15.1875 7.59277C15.1875 6.42966 14.2412 5.4834 13.0781 5.4834ZM13.0781 8.29589C12.6904 8.29589 12.375 7.98047 12.375 7.59277C12.375 7.20507 12.6904 6.88965 13.0781 6.88965C13.4658 6.88965 13.7812 7.20507 13.7812 7.59277C13.7812 7.98047 13.4658 8.29589 13.0781 8.29589ZM2.10936 16.5927H13.3593C13.7476 16.5927 14.0624 16.9075 14.0624 17.2959C14.0624 17.6842 13.7476 17.999 13.3593 17.999H2.10936C0.946259 17.999 0 17.0527 0 15.8896C0 14.7265 0.946259 13.7803 2.10936 13.7803H6.32808C6.71578 13.7803 7.0312 13.4648 7.0312 13.0771C7.0312 12.6894 6.71578 12.374 6.32808 12.374H3.5156C3.12727 12.374 2.81248 12.0592 2.81248 11.6709C2.81248 11.2826 3.12727 10.9678 3.5156 10.9678H6.32808C7.49118 10.9678 8.43744 11.914 8.43744 13.0771C8.43744 14.2402 7.49118 15.1865 6.32808 15.1865H2.10936C1.72166 15.1865 1.40624 15.5019 1.40624 15.8896C1.40624 16.2773 1.72166 16.5927 2.10936 16.5927ZM17.9393 6.8106C17.6241 4.77443 15.9896 3.10407 13.9644 2.7485C12.5076 2.49274 11.0315 2.88392 9.91457 3.82181C8.79714 4.76016 8.15624 6.13451 8.15624 7.59243C8.15624 8.6661 8.49595 9.68647 9.1386 10.5433L12.5156 15.0455C12.6484 15.2226 12.8568 15.3268 13.0781 15.3268C13.2994 15.3268 13.5078 15.2226 13.6406 15.0455L17.0176 10.5433C17.8192 9.47455 18.1465 8.14892 17.9393 6.8106ZM15.8926 9.69947L13.0781 13.4518L10.2636 9.69947C9.80492 9.08804 9.56248 8.35943 9.56248 7.59243C9.56248 6.55104 10.0204 5.5692 10.8189 4.89871C11.63 4.2176 12.6612 3.94742 13.7213 4.13354C15.1621 4.38652 16.3252 5.57581 16.5496 7.02572C16.6984 7.98671 16.4651 8.93627 15.8926 9.69947ZM4.21875 3.51465C4.21875 3.90297 3.90395 4.21777 3.51562 4.21777C3.1273 4.21777 2.8125 3.90297 2.8125 3.51465C2.8125 3.12632 3.1273 2.81152 3.51562 2.81152C3.90395 2.81152 4.21875 3.12632 4.21875 3.51465Z" fill="#60A0F8"/>
</svg>
