<svg width="168" height="162" viewBox="0 0 168 162" fill="none" xmlns="http://www.w3.org/2000/svg">
<g filter="url(#filter0_d_1707_124354)">
<path d="M85.6745 38.41L86.2109 39.1255L100.527 28.3934L99.9905 27.6779L85.6745 38.41Z" fill="#60A0F8"/>
<path d="M99.1785 29.2608L106.062 42.3081C106.323 42.8038 106.931 42.9993 107.431 42.7484C107.923 42.5016 108.135 41.9101 107.911 41.4058L101.936 27.9152C101.55 27.0432 100.474 26.7302 99.6834 27.2595C99.0282 27.6978 98.8101 28.5626 99.1785 29.2608Z" fill="#60A0F8"/>
<path d="M84.0663 55.2857L80.5723 54.6204L83.0097 41.4187C83.2501 40.1168 84.0416 38.9879 85.1744 38.3314L99.2573 30.1684C99.751 29.8823 100.372 29.9669 100.774 30.3752C101.34 30.9496 101.243 31.9068 100.574 32.3519L87.2157 41.2393C86.8111 41.5085 86.5319 41.9336 86.4429 42.4164L84.0663 55.2857Z" fill="#60A0F8"/>
<path d="M86.9994 59.1431H76.2852V63.0002H86.9994V59.1431Z" fill="#625D6B"/>
<path d="M74.1419 51.4291H63.4277V50.572C63.4277 50.0987 63.8276 49.7148 64.3206 49.7148H73.2491C73.7422 49.7148 74.142 50.0987 74.142 50.572V51.4291H74.1419Z" fill="#736F7B"/>
<path d="M95.8353 68.9997H65.3047C63.321 68.9997 61.7129 67.4647 61.7129 65.5712C61.7129 63.6776 63.321 62.1426 65.3047 62.1426H95.8354C97.8191 62.1426 99.4272 63.6776 99.4272 65.5712C99.4272 67.4648 97.8191 68.9997 95.8353 68.9997Z" fill="#504B5A"/>
<path d="M95.9989 63.8569H65.5703V67.2855H95.9989V63.8569Z" fill="#625D6B"/>
<path d="M65.3714 67.4004C66.3596 67.4004 67.1607 66.5993 67.1607 65.6111C67.1607 64.6229 66.3596 63.8218 65.3714 63.8218C64.3831 63.8218 63.582 64.6229 63.582 65.6111C63.582 66.5993 64.3831 67.4004 65.3714 67.4004Z" fill="#736F7B"/>
<path d="M95.7893 67.4004C96.7775 67.4004 97.5786 66.5993 97.5786 65.6111C97.5786 64.6229 96.7775 63.8218 95.7893 63.8218C94.8011 63.8218 94 64.6229 94 65.6111C94 66.5993 94.8011 67.4004 95.7893 67.4004Z" fill="#736F7B"/>
<path d="M87.141 45H76.0913C75.5964 45 75.1952 45.3966 75.1952 45.8857V51.2H61.7536C61.2587 51.2 60.8574 51.5967 60.8574 52.0858V58.2857H90.4289V56.7399C90.4289 55.4116 90.3078 54.0859 90.0675 52.779L88.9041 46.4547C88.7493 45.6122 88.0071 45 87.141 45Z" fill="#60A0F8"/>
<path d="M90.1174 52.8416L88.9603 46.4663C88.8062 45.6172 88.0679 45 87.2064 45H77.998V54.8214C77.998 55.3145 78.3972 55.7143 78.8894 55.7143H90.4266C90.3783 54.7514 90.2898 53.791 90.1174 52.8416Z" fill="#504B5A"/>
<path d="M89.37 53.0228L88.1475 46.5965C88.066 46.1685 87.6762 45.8574 87.2209 45.8574H83.6135C83.3534 45.8574 83.1426 46.0589 83.1426 46.3074V54.4074C83.1426 54.656 83.3534 54.8574 83.6135 54.8574H89.0985C89.3766 54.8574 89.5978 54.6244 89.5685 54.36C89.5162 53.8869 89.4508 53.4471 89.37 53.0228Z" fill="#625D6B"/>
<path d="M60.8939 60.4287H90.3918C90.8854 60.4287 91.2857 59.9809 91.2857 59.4287V58.4287C91.2857 57.8765 90.8854 57.4287 90.3918 57.4287H60.8939C60.4003 57.4287 60 57.8765 60 58.4287V59.4287C60 59.981 60.4003 60.4287 60.8939 60.4287Z" fill="#159AD3"/>
<path d="M81.8594 52.286H79.288C79.0512 52.286 78.8594 52.0804 78.8594 51.8268V46.3166C78.8594 46.063 79.0512 45.8574 79.288 45.8574H81.8594C82.0961 45.8574 82.2879 46.063 82.2879 46.3166V51.8268C82.2879 52.0803 82.096 52.286 81.8594 52.286Z" fill="#625D6B"/>
<path d="M72.0453 53.1427C71.8138 53.1427 71.5823 53.0558 71.4057 52.882C71.0523 52.5343 71.0523 51.971 71.4057 51.6233L72.0453 50.994V42.4614C72.0453 41.9698 72.4506 41.5712 72.9503 41.5713L75.6416 41.5719C77.5619 41.5723 79.2974 43.1157 79.2834 45.0049C79.2767 45.9054 78.9169 46.7512 78.2691 47.3885L72.6851 52.8821C72.5083 53.0557 72.2768 53.1427 72.0453 53.1427Z" fill="#625D6B"/>
<path d="M72.0589 53.1429C71.8239 53.1429 71.5889 53.0533 71.4097 52.8739C71.0509 52.5152 71.0509 51.9339 71.4097 51.5752L76.0015 46.9834C76.3602 46.6247 76.9415 46.6247 77.3002 46.9834C77.6589 47.3421 77.6589 47.9232 77.3002 48.2819L72.7083 52.8738C72.5289 53.0531 72.2939 53.1429 72.0589 53.1429Z" fill="#736F7B"/>
</g>
<defs>
<filter id="filter0_d_1707_124354" x="0" y="-3" width="168" height="168" filterUnits="userSpaceOnUse" color-interpolation-filters="sRGB">
<feFlood flood-opacity="0" result="BackgroundImageFix"/>
<feColorMatrix in="SourceAlpha" type="matrix" values="0 0 0 0 0 0 0 0 0 0 0 0 0 0 0 0 0 0 127 0" result="hardAlpha"/>
<feOffset dy="33"/>
<feGaussianBlur stdDeviation="30"/>
<feColorMatrix type="matrix" values="0 0 0 0 0.768627 0 0 0 0 0.803922 0 0 0 0 0.866667 0 0 0 1 0"/>
<feBlend mode="normal" in2="BackgroundImageFix" result="effect1_dropShadow_1707_124354"/>
<feBlend mode="normal" in="SourceGraphic" in2="effect1_dropShadow_1707_124354" result="shape"/>
</filter>
</defs>
</svg>
