<svg width="48" height="24" viewBox="0 0 48 24" fill="none" xmlns="http://www.w3.org/2000/svg">
<rect x="7.25391" y="14.7427" width="25.8408" height="1.81339" fill="#29AAE2"/>
<rect x="7.70703" y="13.3828" width="22.6673" height="2.26673" rx="1.13337" fill="#159AD3"/>
<path d="M35.928 2.04932H37.0614C37.3743 2.04932 37.6281 2.41727 37.6281 2.87104V14.3746C37.6281 14.8284 37.3743 15.1964 37.0614 15.1964H35.928C35.6151 15.1964 35.3613 14.8284 35.3613 14.3746V2.87104C35.3614 2.41718 35.6151 2.04932 35.928 2.04932Z" fill="#A7A5AC"/>
<path d="M40.802 14.9692H34.4552V16.4264H7.10493C6.68675 16.4264 6.34766 16.7454 6.34766 17.1388V18.5636C6.34766 18.957 6.68675 19.276 7.10493 19.276H40.802V14.9692Z" fill="#625D6B"/>
<rect x="38.082" y="1.14258" width="0.906695" height="1.36004" rx="0.453347" fill="#E79F4B"/>
<path d="M35.3613 2.50266C35.3613 2.25229 35.5643 2.04932 35.8147 2.04932H38.9881C39.2385 2.04932 39.4415 2.25229 39.4415 2.50266V2.50266C39.4415 2.75304 39.2385 2.95601 38.9881 2.95601H35.8147C35.5643 2.95601 35.3613 2.75304 35.3613 2.50266V2.50266Z" fill="#A7A5AC"/>
<path d="M32.8672 15.8765L33.0939 13.8364L34.4539 3.86279L34.2272 15.8765H32.8672Z" stroke="#29AAE2" stroke-width="4.20476" stroke-linejoin="round"/>
<path d="M42.6386 2.57227H37.7699C37.3642 2.57227 37.0352 2.90128 37.0352 3.30703V14.3281C37.0352 14.7338 37.3642 15.0628 37.7699 15.0628H39.6068V18.7365H47.3215V13.4881C47.3215 12.5863 47.1555 11.6922 46.8318 10.8506L44.0101 3.51428C43.7918 2.94664 43.2466 2.57227 42.6386 2.57227Z" fill="#60A0F8"/>
<path d="M47.3222 15.064H39.6074V18.7376H47.3222V15.064Z" fill="#159AD3"/>
<path d="M6.89179 12.5301L5.96752 11.3403C5.62652 10.9013 5.44141 10.3612 5.44141 9.80537C5.44141 9.18988 5.66826 8.59599 6.0786 8.13724L7.81267 6.19862C9.14213 4.71232 11.0418 3.86279 13.0359 3.86279H25.2778C27.149 3.86279 28.9345 4.64709 30.2004 6.02507L30.9571 6.84883C31.6035 7.55246 31.9622 8.47311 31.9622 9.42858C31.9622 10.231 31.7091 11.013 31.2388 11.6632L30.6905 12.4213C29.43 14.1643 27.4097 15.1965 25.2587 15.1965H12.3392C10.2091 15.1965 8.19849 14.2123 6.89179 12.5301Z" fill="#159AD3"/>
<path d="M12.1996 23.0593C14.0594 23.0593 15.5671 21.5516 15.5671 19.6918C15.5671 17.8319 14.0594 16.3242 12.1996 16.3242C10.3397 16.3242 8.83203 17.8319 8.83203 19.6918C8.83203 21.5516 10.3397 23.0593 12.1996 23.0593Z" fill="#EDEDEE"/>
<path d="M12.2012 23.732C9.97286 23.732 8.16016 21.9193 8.16016 19.691C8.16016 17.4626 9.97286 15.6499 12.2012 15.6499C14.4296 15.6499 16.2423 17.4626 16.2423 19.691C16.2423 21.9193 14.4296 23.732 12.2012 23.732ZM12.2012 17.1194C10.783 17.1194 9.62961 18.2728 9.62961 19.691C9.62961 21.1093 10.783 22.2627 12.2012 22.2627C13.6195 22.2627 14.7728 21.1093 14.7728 19.691C14.7728 18.2728 13.6195 17.1194 12.2012 17.1194Z" fill="#504B5A"/>
<path d="M12.2019 21.1611C13.0134 21.1611 13.6713 20.5032 13.6713 19.6916C13.6713 18.8801 13.0134 18.2222 12.2019 18.2222C11.3903 18.2222 10.7324 18.8801 10.7324 19.6916C10.7324 20.5032 11.3903 21.1611 12.2019 21.1611Z" fill="#DCDBDE"/>
<path d="M39.6058 22.4719C41.4657 22.4719 42.9734 20.9642 42.9734 19.1044C42.9734 17.2445 41.4657 15.7368 39.6058 15.7368C37.746 15.7368 36.2383 17.2445 36.2383 19.1044C36.2383 20.9642 37.746 22.4719 39.6058 22.4719Z" fill="#EDEDEE"/>
<path d="M39.6055 23.1446C37.3772 23.1446 35.5645 21.3319 35.5645 19.1036C35.5645 16.8752 37.3772 15.0625 39.6055 15.0625C41.8339 15.0625 43.6466 16.8752 43.6466 19.1036C43.6465 21.3319 41.8339 23.1446 39.6055 23.1446ZM39.6055 16.532C38.1873 16.532 37.0339 17.6854 37.0339 19.1036C37.0339 20.5219 38.1872 21.6753 39.6055 21.6753C41.0238 21.6753 42.1771 20.5219 42.1771 19.1036C42.1771 17.6854 41.0237 16.532 39.6055 16.532Z" fill="#504B5A"/>
<path d="M39.6042 20.5732C40.4158 20.5732 41.0737 19.9153 41.0737 19.1037C41.0737 18.2922 40.4158 17.6343 39.6042 17.6343C38.7927 17.6343 38.1348 18.2922 38.1348 19.1037C38.1348 19.9153 38.7927 20.5732 39.6042 20.5732Z" fill="#DCDBDE"/>
<path d="M46.5863 19.4707H47.3211C47.7268 19.4707 48.0558 19.1417 48.0558 18.736V17.2665C48.0558 16.8608 47.7268 16.5317 47.3211 16.5317H46.5863C46.1806 16.5317 45.8516 16.8608 45.8516 17.2665V18.736C45.8516 19.1418 46.1805 19.4707 46.5863 19.4707Z" fill="#625D6B"/>
<path d="M46.5844 13.5918H47.3191V15.796H46.5844C46.1786 15.796 45.8496 15.467 45.8496 15.0613V14.3265C45.8496 13.9207 46.1785 13.5918 46.5844 13.5918Z" fill="#EDEDEE"/>
<path d="M42.4159 4.0415H39.2387C38.8329 4.0415 38.5039 4.37052 38.5039 4.77627V8.44995C38.5039 8.8557 38.8329 9.18472 39.2387 9.18472H44.6303C45.0029 9.18472 45.2596 8.81101 45.1258 8.46327L43.7875 4.98344C43.5691 4.41588 43.0238 4.0415 42.4159 4.0415Z" fill="#625D6B"/>
<path d="M26.7484 18.7376C27.1542 18.7376 27.4832 18.4086 27.4832 18.0028C27.4832 17.597 27.1542 17.2681 26.7484 17.2681C26.3426 17.2681 26.0137 17.597 26.0137 18.0028C26.0137 18.4086 26.3426 18.7376 26.7484 18.7376Z" fill="#625D6B"/>
<path fill-rule="evenodd" clip-rule="evenodd" d="M11.4041 4.50593C10.8157 4.50593 10.2489 4.64819 9.87362 4.78083C9.75024 4.82444 9.62078 4.91475 9.48839 5.06007L9.05626 5.53437L6.68166 8.18082H29.5293C29.989 8.18082 30.3504 8.17208 30.6317 8.15813C29.9996 7.23596 29.1251 6.00591 28.5729 5.36952C28.3069 5.06295 27.8861 4.83978 27.4115 4.69498C26.9428 4.55199 26.4885 4.50593 26.2338 4.50593H11.4041ZM9.44519 3.5686C9.91135 3.40385 10.6273 3.22021 11.4041 3.22021H26.2338C26.6068 3.22021 27.1882 3.28266 27.7866 3.46522C28.3791 3.64596 29.0568 3.96535 29.544 4.52689C30.1936 5.27551 31.1975 6.70352 31.8286 7.63098C31.9435 7.79985 32.127 8.09125 32.1642 8.40252C32.1856 8.5816 32.1665 8.8415 31.9778 9.06833C31.796 9.28683 31.5485 9.36301 31.3588 9.38761C30.9842 9.43622 30.4036 9.46653 29.5293 9.46653H6.49603C6.25281 9.49222 5.88417 9.51175 5.58739 9.46132C5.50448 9.44724 5.40385 9.42405 5.30325 9.38201C5.2099 9.343 5.05998 9.26455 4.94435 9.10761C4.80806 8.92261 4.76912 8.69589 4.82075 8.48383C4.86467 8.30341 4.96438 8.16952 5.04084 8.08431L8.1042 4.67026L8.53798 4.19417C8.76561 3.94432 9.06454 3.70313 9.44519 3.5686Z" fill="#29AAE2"/>
<path fill-rule="evenodd" clip-rule="evenodd" d="M9.78516 8.84939V4.31592H11.0709V8.84939H9.78516Z" fill="#29AAE2"/>
<path fill-rule="evenodd" clip-rule="evenodd" d="M26.7853 9.10694L26.5586 4.3468L27.8429 4.28564L28.0695 9.04579L26.7853 9.10694Z" fill="#29AAE2"/>
<path fill-rule="evenodd" clip-rule="evenodd" d="M31.293 13.1567C31.293 13.0383 31.3889 12.9424 31.5073 12.9424H33.5473C33.6657 12.9424 33.7616 13.0383 33.7616 13.1567V20.4102C33.7616 20.5286 33.6657 20.6245 33.5473 20.6245H31.5073C31.3889 20.6245 31.293 20.5286 31.293 20.4102V13.1567ZM31.7215 14.3024H33.333V13.371H31.7215V14.3024ZM33.333 14.731H31.7215V20.1959H33.333V14.731Z" fill="#159AD3"/>
<path fill-rule="evenodd" clip-rule="evenodd" d="M31.5078 15.6621H33.5479V16.0907H31.5078V15.6621Z" fill="#159AD3"/>
<path fill-rule="evenodd" clip-rule="evenodd" d="M31.7344 17.249H33.7744V17.6776H31.7344V17.249Z" fill="#159AD3"/>
<path fill-rule="evenodd" clip-rule="evenodd" d="M31.2793 18.6089H33.3194V19.0375H31.2793V18.6089Z" fill="#159AD3"/>
<path d="M4.45625 15.9172L18.6287 1.57666C19.6012 0.550676 20.2378 1.57666 19.8134 2.25957L5.59696 16.9987C4.11168 18.2804 3.6873 16.5715 4.45625 15.9172Z" fill="#29AAE2"/>
<path fill-rule="evenodd" clip-rule="evenodd" d="M19.8929 1.12093C20.2067 1.41538 20.254 1.95875 19.9968 2.37259C19.9888 2.38543 19.9795 2.39738 19.969 2.40826L5.75255 17.1474C5.74802 17.1521 5.74326 17.1566 5.73832 17.1609C5.35058 17.4955 5.00037 17.6638 4.69422 17.6765C4.37034 17.6899 4.12968 17.5275 3.99573 17.2887C3.86778 17.0606 3.8397 16.7717 3.89223 16.5015C3.94467 16.2318 4.0813 15.9593 4.31137 15.7603L18.4761 1.42749C18.7365 1.15325 18.9955 0.993105 19.2437 0.944174C19.5006 0.893523 19.7282 0.966456 19.8929 1.12093ZM19.3266 1.36465C19.1956 1.39047 19.0109 1.48627 18.7855 1.724L18.7825 1.72724L18.7824 1.72721L4.61003 16.0678C4.60569 16.0722 4.60118 16.0763 4.59648 16.0803C4.44653 16.2079 4.35021 16.3915 4.31293 16.5833C4.27518 16.7775 4.30184 16.9584 4.36953 17.0791C4.43121 17.1891 4.52708 17.2545 4.67648 17.2483C4.84246 17.2414 5.09985 17.144 5.451 16.8427L19.6437 2.12819C19.7973 1.86343 19.738 1.56325 19.5996 1.43347C19.5366 1.37433 19.4493 1.34046 19.3266 1.36465Z" fill="#29AAE2"/>
<path d="M7.74793 18.223C8.06585 17.6662 7.68254 16.7563 6.79339 17.3087L2.60993 21.1472L0.765757 21.9104L2.93986 22.3555L7.74793 18.223Z" fill="#29AAE2"/>
<path fill-rule="evenodd" clip-rule="evenodd" d="M6.92249 17.4801L2.75431 21.3045C2.73584 21.3214 2.71454 21.335 2.69138 21.3446L1.49378 21.8402L2.87938 22.1239L7.57745 18.0859C7.6804 17.8785 7.65721 17.6222 7.55002 17.4761C7.49861 17.4059 7.42976 17.3622 7.33957 17.3528C7.24754 17.3431 7.10974 17.3672 6.92249 17.4801ZM7.89561 17.2226C8.11762 17.5253 8.13032 17.984 7.93352 18.3286C7.92138 18.3499 7.90568 18.3689 7.88711 18.3849L3.07904 22.5174C3.02877 22.5606 2.96133 22.5781 2.89639 22.5648L0.722285 22.1197C0.63002 22.1008 0.560902 22.0239 0.551946 21.9302C0.54299 21.8364 0.596297 21.7478 0.683317 21.7118L2.49248 20.9631L6.64802 17.1503C6.65784 17.1412 6.66849 17.1332 6.67981 17.1261C6.9287 16.9715 7.16685 16.9038 7.38415 16.9265C7.60597 16.9497 7.77979 17.0647 7.89561 17.2226Z" fill="#29AAE2"/>
<path fill-rule="evenodd" clip-rule="evenodd" d="M19.6876 2.29061C19.8046 2.27261 19.914 2.35285 19.932 2.46982C20.1562 3.92751 20.7384 5.97615 21.7429 7.40568C22.2441 8.11891 22.8385 8.66108 23.5292 8.91207C24.2124 9.16033 25.0182 9.13411 25.9712 8.6576C26.0771 8.60467 26.2058 8.64757 26.2587 8.75343C26.3116 8.85928 26.2687 8.988 26.1629 9.04092C25.1212 9.56177 24.1929 9.60922 23.3829 9.31488C22.5804 9.02327 21.9224 8.40657 21.3922 7.65209C20.334 6.1462 19.7375 4.02405 19.5084 2.53499C19.4904 2.41801 19.5706 2.3086 19.6876 2.29061Z" fill="#625D6B"/>
</svg>
