<svg width="91" height="30" viewBox="0 0 91 30" fill="none" xmlns="http://www.w3.org/2000/svg">
    <g clip-path="url(#clip0)">
    <path d="M2.89722 10.2952L0.283203 12.779V10.5279C0.291118 7.94332 1.40654 5.46664 3.38574 3.63897C5.36495 1.81129 8.04717 0.781112 10.8463 0.77356H13.1682L15.5112 2.87702L16.0973 3.40238L15.5112 3.92774L13.2722 5.93607H12.3402C10.6788 5.94069 9.08679 6.55211 7.91187 7.6368C6.73694 8.7215 6.07449 10.1914 6.06921 11.7255V13.3108L2.89722 10.2952Z" fill="#1080E6"/>
    <path d="M29.2831 10.5299V13.1152L27.1311 15.1605L26.561 15.7006L25.993 15.1605L23.493 12.7856V11.7293C23.488 10.1953 22.8259 8.72543 21.6511 7.64071C20.4764 6.55599 18.8844 5.94449 17.223 5.93986H16.1831L19.0121 3.40617L16.0811 0.777466H18.717C21.5157 0.786471 24.1969 1.81709 26.1758 3.64445C28.1546 5.47181 29.2705 7.94756 29.28 10.5317" fill="#1080E6"/>
    <path d="M10.4323 25.3172L12.9172 27.5489H10.8463C8.04783 27.5399 5.36665 26.5094 3.38782 24.6823C1.40898 22.8551 0.292954 20.3796 0.283203 17.7956V15.4705L2.32727 13.5315L2.89722 12.9923L3.46729 13.5315L6.06726 16.0051V16.6016C6.07227 18.1358 6.73456 19.6059 7.90955 20.6906C9.08453 21.7754 10.6767 22.3867 12.3383 22.391H13.6992L10.4323 25.3172Z" fill="#1080E6"/>
    <path d="M29.2826 15.8018V17.7961C29.2728 20.3802 28.1568 22.8559 26.1777 24.6831C24.1987 26.5103 21.5173 27.5407 18.7186 27.5494H15.8326L13.9326 25.8441L13.3467 25.3177L13.9326 24.7924L16.6146 22.3917H17.2236C18.8851 22.3873 20.4772 21.7759 21.652 20.6912C22.8268 19.6064 23.4889 18.1363 23.4937 16.6022V15.4767L26.5597 18.3926L29.2826 15.8018Z" fill="#1080E6"/>
    </g>
    <path d="M44.2697 15.4491C43.3949 14.9122 42.4063 14.5533 41.3697 14.3965C40.7479 14.3174 40.1498 14.1237 39.6108 13.8268C39.4687 13.7229 39.3557 13.5889 39.2812 13.4363C39.2067 13.2836 39.173 13.1167 39.1828 12.9496C39.1819 12.7615 39.2254 12.5755 39.3104 12.4045C39.3954 12.2335 39.5197 12.0817 39.6748 11.9597C40.0983 11.653 40.6311 11.5042 41.1678 11.5425C41.7174 11.525 42.2527 11.7062 42.6598 12.0475C42.8395 12.1856 42.9851 12.3577 43.0868 12.5521C43.1884 12.7466 43.2436 12.959 43.2487 13.1749H45.0488L45.0688 13.1214C45.0807 12.726 44.9923 12.3336 44.8109 11.9753C44.6295 11.617 44.3599 11.3028 44.0238 11.0577C43.2107 10.4919 42.2228 10.1815 41.2048 10.1719C40.1868 10.1622 39.1922 10.4539 38.3668 11.0041C38.0326 11.2391 37.7614 11.5418 37.5739 11.8888C37.3865 12.2359 37.2879 12.6181 37.2857 13.0059C37.2771 13.3511 37.3628 13.6927 37.5348 13.9993C37.7067 14.3059 37.9595 14.5676 38.2697 14.7603C39.1246 15.2715 40.083 15.617 41.0868 15.776C41.7287 15.8681 42.3423 16.0849 42.8868 16.4121C43.0389 16.5247 43.1609 16.6683 43.2433 16.8314C43.3256 16.9946 43.3662 17.1731 43.3618 17.3531C43.3632 17.5509 43.3118 17.7461 43.2122 17.9213C43.1127 18.0965 42.9679 18.2463 42.7907 18.3577C42.3248 18.6443 41.7708 18.7836 41.2118 18.7547C40.6301 18.7656 40.0583 18.6147 39.5708 18.3216C39.3337 18.1701 39.1412 17.9666 39.0105 17.7293C38.8797 17.4921 38.8149 17.2286 38.8217 16.9625H37.0218L37.0018 17.0152C36.9859 17.4301 37.0757 17.8426 37.264 18.2196C37.4523 18.5966 37.7337 18.9276 38.0858 19.1859C38.9671 19.8446 40.0828 20.1761 41.2148 20.1157C42.2597 20.1616 43.2904 19.8773 44.1368 19.3097C44.4903 19.071 44.7762 18.7573 44.9707 18.395C45.1651 18.0327 45.2622 17.6326 45.2537 17.2284C45.2602 16.8793 45.1733 16.5341 45.0008 16.2235C44.8283 15.9128 44.5754 15.6463 44.2647 15.4473" fill="#1080E6"/>
    <path d="M85.3136 10.379C84.6106 10.4197 83.9234 10.5893 83.2922 10.878C82.6611 11.1667 82.0986 11.5687 81.6376 12.0605V10.5887H80.0977V24.4989H81.6376V18.6817C82.6966 19.5054 83.5436 20.2819 85.3136 20.2819C86.7103 20.2467 88.037 19.7096 89.0115 18.785C89.9859 17.8603 90.5311 16.6211 90.5311 15.331C90.5311 14.0408 89.9859 12.8015 89.0115 11.8769C88.037 10.9522 86.7103 10.4152 85.3136 10.3799V10.379ZM85.3136 18.9136C84.3355 18.8232 83.4242 18.4144 82.7427 17.7604C82.0611 17.1064 81.6538 16.2498 81.5936 15.3438C81.6201 14.6679 81.8615 14.0141 82.2877 13.464C82.7139 12.9139 83.3062 12.4918 83.9905 12.2504C84.6748 12.009 85.4208 11.959 86.1357 12.1065C86.8506 12.254 87.5027 12.5925 88.0106 13.0799C88.5185 13.5673 88.8598 14.1819 88.9919 14.8472C89.1241 15.5125 89.0411 16.199 88.7535 16.8211C88.4659 17.4431 87.9864 17.9733 87.3746 18.3454C86.7629 18.7175 86.0461 18.9151 85.3136 18.9136Z" fill="#1080E6"/>
    <path d="M74.3616 11.7665C73.8802 11.3102 73.2992 10.9537 72.6571 10.7207C72.015 10.4878 71.3266 10.3838 70.6376 10.4156C69.2764 10.4751 67.9917 11.014 67.0477 11.9215C66.1038 12.8289 65.5722 14.0359 65.5626 15.2941C65.553 16.5523 66.0659 17.7661 66.996 18.6858C67.926 19.6054 69.2025 20.1611 70.5626 20.2383C71.2801 20.2387 71.9894 20.099 72.6443 19.8285C73.2992 19.5579 73.8847 19.1627 74.3626 18.6685V20.085H76.0095V10.5744H74.3616V11.7665ZM70.5615 18.8154C69.6051 18.7442 68.715 18.3363 68.0752 17.676C67.4354 17.0156 67.095 16.1534 67.1245 15.2678C67.116 14.388 67.4772 13.5393 68.1321 12.9002C68.787 12.261 69.6847 11.8811 70.6366 11.8403C71.6203 11.8702 72.5565 12.2383 73.2616 12.8723C73.9668 13.5063 74.3901 14.3606 74.4486 15.2678C74.3784 16.1943 73.945 17.0655 73.2296 17.7185C72.5142 18.3714 71.5657 18.7613 70.5615 18.8154Z" fill="#1080E6"/>
    <path d="M60.1886 12.0627L60.1766 10.5917H58.3906V20.0773H60.2646L60.2067 14.0829C60.3647 13.6979 61.5286 11.0913 63.6156 12.4606V10.5788C63.6156 10.5788 61.6316 9.7478 60.1886 12.0636" fill="#1080E6"/>
    <path d="M48.0234 6.31533V20.0733H49.8174V15.6587L53.8304 20.0733H56.0214L51.5214 15.2284L55.7513 10.5831H53.5323L49.8324 14.7382V6.31262L48.0234 6.31533Z" fill="#1080E6"/>
    <defs>
    <clipPath id="clip0">
    <rect width="29" height="28.6238" fill="white" transform="translate(0 0.77356)"/>
    </clipPath>
    </defs>
    </svg>
    