<svg width="17" height="21" viewBox="0 0 17 21" fill="none" xmlns="http://www.w3.org/2000/svg">
    <path fill-rule="evenodd" clip-rule="evenodd" d="M8.25098 6.85352C7.28598 6.85352 6.50098 7.67122 6.50098 8.67747C6.50098 9.68268 7.28598 10.4993 8.25098 10.4993C9.21598 10.4993 10.001 9.68268 10.001 8.67747C10.001 7.67122 9.21598 6.85352 8.25098 6.85352ZM8.25098 12.0618C6.45898 12.0618 5.00098 10.5441 5.00098 8.67747C5.00098 6.80977 6.45898 5.29102 8.25098 5.29102C10.043 5.29102 11.501 6.80977 11.501 8.67747C11.501 10.5441 10.043 12.0618 8.25098 12.0618Z" fill="#52A9DD"/>
    <mask id="mask0" mask-type="alpha" maskUnits="userSpaceOnUse" x="0" y="0" width="17" height="21">
    <path fill-rule="evenodd" clip-rule="evenodd" d="M0 0.0830078H16.4995V20.3955H0V0.0830078Z" fill="white"/>
    </mask>
    <g mask="url(#mask0)">
    <path fill-rule="evenodd" clip-rule="evenodd" d="M8.24902 1.64551C4.52702 1.64551 1.49902 4.82988 1.49902 8.74238C1.49902 13.7205 7.12302 18.5705 8.24902 18.8288C9.37502 18.5695 14.999 13.7195 14.999 8.74238C14.999 4.82988 11.971 1.64551 8.24902 1.64551ZM8.24902 20.3955C6.45502 20.3955 -0.000976562 14.6122 -0.000976562 8.74238C-0.000976562 3.96738 3.70002 0.0830078 8.24902 0.0830078C12.798 0.0830078 16.499 3.96738 16.499 8.74238C16.499 14.6122 10.043 20.3955 8.24902 20.3955Z" fill="#52A9DD"/>
    </g>
    </svg>
