<svg width="17" height="17" viewBox="0 0 17 17" fill="none" xmlns="http://www.w3.org/2000/svg">
<g clip-path="url(#clip0_6074_171559)">
<path d="M15.875 7.625H9.125V0.875C9.125 0.529813 8.84519 0.25 8.5 0.25C8.15481 0.25 7.875 0.529813 7.875 0.875V7.625H1.125C0.779813 7.625 0.5 7.90481 0.5 8.25C0.5 8.59519 0.779813 8.875 1.125 8.875H7.875V15.625C7.875 15.9702 8.15481 16.25 8.5 16.25C8.84519 16.25 9.125 15.9702 9.125 15.625V8.875H15.875C16.2202 8.875 16.5 8.59519 16.5 8.25C16.5 7.90481 16.2202 7.625 15.875 7.625Z" fill="white"/>
</g>
<defs>
<clipPath id="clip0_6074_171559">
<rect width="16" height="16" fill="white" transform="translate(0.5 0.25)"/>
</clipPath>
</defs>
</svg>
