<svg width="17" height="17" viewBox="0 0 17 17" fill="none" xmlns="http://www.w3.org/2000/svg">
    <path d="M15.53 7.01362C15.2535 7.01362 15.029 7.23806 15.029 7.51459V13.1876L11.0213 14.7907V9.51846C11.0213 9.24193 10.7969 9.01749 10.5203 9.01749C10.2438 9.01749 10.0194 9.24193 10.0194 9.51846V14.7896L6.01162 13.1866V5.24921L8.33311 6.17801C8.5866 6.2802 8.88116 6.15596 8.98436 5.89847C9.08756 5.64197 8.96232 5.35041 8.70482 5.24721L5.70603 4.04689C5.70603 4.04689 5.70603 4.04689 5.70503 4.04689L5.69701 4.04388C5.57778 3.99579 5.44452 3.99579 5.32529 4.04388L5.31627 4.04689C5.31627 4.04689 5.31627 4.04689 5.31527 4.04689L0.314608 6.04775C0.125242 6.1239 0 6.30726 0 6.51265V15.5301C0 15.6964 0.0831607 15.8517 0.220426 15.9449C0.304589 16.002 0.401777 16.031 0.500968 16.031C0.56409 16.031 0.627212 16.019 0.687328 15.995L5.51065 14.0663L10.325 15.992C10.325 15.992 10.325 15.992 10.326 15.992L10.335 15.996C10.4542 16.0441 10.5875 16.0441 10.7067 15.996L10.7157 15.992C10.7157 15.992 10.7157 15.992 10.7167 15.992L15.7174 13.9921C15.9057 13.915 16.031 13.7316 16.031 13.5262V7.51459C16.031 7.23806 15.8065 7.01362 15.53 7.01362ZM5.00968 13.1866L1.00194 14.7896V6.85131L5.00968 5.24821V13.1866Z" fill="#0D0D39"/>
    <path d="M12.5244 0C10.5906 0 9.01758 1.57304 9.01758 3.50678C9.01758 5.30625 11.831 8.49341 12.1516 8.8511C12.2468 8.95631 12.3821 9.01743 12.5244 9.01743C12.6666 9.01743 12.8019 8.95631 12.8971 8.8511C13.2177 8.49341 16.0311 5.30625 16.0311 3.50678C16.0311 1.57304 14.4581 0 12.5244 0ZM12.5244 7.75198C11.4302 6.45447 10.0195 4.46262 10.0195 3.50678C10.0195 2.12611 11.1437 1.00194 12.5244 1.00194C13.905 1.00194 15.0292 2.12611 15.0292 3.50678C15.0292 4.46162 13.6185 6.45447 12.5244 7.75198Z" fill="#0D0D39"/>
    </svg>
    