<svg width="14" height="14" viewBox="0 0 14 14" fill="none" xmlns="http://www.w3.org/2000/svg">
    <path d="M12.5676 5.24983C12.5199 5.10383 12.4165 4.98254 12.2799 4.91228C12.1434 4.84201 11.9846 4.82845 11.8381 4.87453C11.6916 4.92061 11.5691 5.02262 11.4974 5.15841C11.4256 5.2942 11.4103 5.45282 11.4547 5.59983C11.7397 6.5027 11.7431 7.47093 11.4645 8.37579C11.1859 9.28065 10.6385 10.0793 9.89499 10.6655C9.1515 11.2516 8.24719 11.5976 7.30229 11.6574C6.3574 11.7172 5.4167 11.4879 4.60525 11.0001L4.75205 11.0068C4.90661 11.0139 5.05764 10.9593 5.17193 10.855C5.28621 10.7507 5.35438 10.6053 5.36144 10.4507C5.36851 10.2961 5.31388 10.1451 5.20959 10.0308C5.10529 9.91654 4.95987 9.84837 4.80531 9.84131L2.97043 9.75742C2.88303 9.75341 2.79584 9.76911 2.71532 9.80337C2.63481 9.83762 2.56303 9.88955 2.50531 9.9553C2.44758 10.0211 2.40539 10.099 2.38185 10.1832C2.35832 10.2675 2.35404 10.356 2.36934 10.4421L2.69035 12.2507C2.71878 12.4023 2.80554 12.5367 2.93201 12.6251C3.05847 12.7134 3.21454 12.7486 3.36669 12.7232C3.44213 12.7098 3.51419 12.6817 3.57877 12.6405C3.64334 12.5992 3.69916 12.5457 3.74304 12.4829C3.78692 12.4201 3.81799 12.3492 3.83449 12.2744C3.85099 12.1996 3.85259 12.1223 3.83919 12.0468L3.81003 11.8827C4.8341 12.5379 6.03511 12.8619 7.24978 12.8106C8.46445 12.7593 9.63385 12.3351 10.599 11.5959C11.5304 10.8613 12.2172 9.86149 12.5687 8.72851C12.9201 7.59553 12.9197 6.3826 12.5676 5.24983Z" fill="#52A9DD"/>
    <path d="M2.54442 8.40309C2.2599 7.50022 2.2569 6.53214 2.53582 5.62753C2.81475 4.72291 3.36238 3.92461 4.10594 3.33873C4.84949 2.75286 5.75375 2.40715 6.69851 2.34757C7.64327 2.28799 8.58379 2.51736 9.39505 3.00518L9.24776 2.99845C9.0932 2.99138 8.94217 3.04601 8.82789 3.1503C8.7136 3.2546 8.64543 3.40002 8.63837 3.55458C8.63131 3.70914 8.68593 3.86017 8.79023 3.97446C8.89452 4.08874 9.03995 4.15691 9.1945 4.16398L11.0294 4.24771C11.0384 4.24815 11.0472 4.24827 11.056 4.24827C11.1413 4.24827 11.2255 4.22959 11.3027 4.19354C11.38 4.15749 11.4484 4.10495 11.5032 4.0396C11.5579 3.97426 11.5977 3.89771 11.6197 3.81534C11.6416 3.73297 11.6453 3.64679 11.6304 3.56285L11.3094 1.75443C11.296 1.679 11.2679 1.60695 11.2266 1.54239C11.1854 1.47783 11.1318 1.42203 11.069 1.37816C11.0062 1.3343 10.9354 1.30323 10.8606 1.28674C10.7858 1.27025 10.7085 1.26865 10.633 1.28205C10.5576 1.29544 10.4856 1.32356 10.421 1.36479C10.3564 1.40603 10.3006 1.45958 10.2568 1.52239C10.2129 1.58519 10.1818 1.65602 10.1653 1.73083C10.1489 1.80564 10.1473 1.88297 10.1606 1.95839L10.1898 2.12243C9.18343 1.46369 7.998 1.1322 6.7959 1.17334C5.5938 1.21448 4.43381 1.62624 3.47482 2.35224C2.51582 3.07823 1.80472 4.08295 1.4389 5.22877C1.07309 6.3746 1.07045 7.6055 1.43136 8.75288C1.47913 8.89953 1.58247 9.02162 1.7192 9.09297C1.85594 9.16432 2.01519 9.17925 2.1628 9.13456C2.23589 9.11159 2.30374 9.07445 2.36248 9.02526C2.42121 8.97607 2.46968 8.91579 2.50512 8.84787C2.54056 8.77994 2.56227 8.7057 2.56901 8.62939C2.57575 8.55307 2.5674 8.47617 2.54442 8.40309Z" fill="#52A9DD"/>
    </svg>
    