<svg width="33" height="35" viewBox="0 0 33 35" fill="none" xmlns="http://www.w3.org/2000/svg">
<path d="M16.1302 0.000288307C16.6889 0.000288307 17.2391 0.0365399 17.7509 0.121838C18.2549 0.187885 18.7522 0.297767 19.2372 0.450235C19.7234 0.597374 20.1989 0.780765 20.6744 1.01107C21.1372 1.23071 21.6127 1.4994 22.0883 1.79155C22.8922 2.30333 23.6833 2.71703 24.4894 3.04756C26.0762 3.68267 27.7542 4.0606 29.4601 4.16709C30.3259 4.22893 31.2151 4.26519 32.1406 4.26519V12.795C32.1406 14.4156 31.9338 15.951 31.5201 17.4139C31.1227 18.8559 30.558 20.2464 29.8376 21.5572C29.1202 22.8662 28.2713 24.0987 27.3042 25.2357C26.3223 26.3985 25.2591 27.4902 24.1226 28.5026C22.9711 29.5179 21.7583 30.4616 20.4911 31.3281C19.2244 32.2067 17.9449 33.0234 16.6654 33.7655L16.1537 34.0704L15.6419 33.7655C14.3266 33.004 13.0418 32.1909 11.7907 31.3281C10.5163 30.4713 9.30287 29.5272 8.15911 28.5026C7.02334 27.4902 5.96084 26.3985 4.97962 25.2357C4.0151 24.0939 3.16247 22.8621 2.43348 21.5572C1.72536 20.2406 1.16127 18.8514 0.750978 17.4139C0.33466 15.9099 0.129402 14.3554 0.141098 12.795V4.26519C1.06871 4.26519 1.95794 4.22893 2.82372 4.16709C3.67598 4.1079 4.52271 3.98602 5.35707 3.80244C6.1738 3.61905 6.99052 3.37595 7.79446 3.04756C8.62868 2.71087 9.42849 2.29454 10.1828 1.80434C11.1211 1.19446 12.0721 0.744513 13.0104 0.448103C14.0209 0.138325 15.0734 -0.0127442 16.1302 0.000288307ZM29.9954 6.36138C28.3812 6.28306 26.782 6.01319 25.2315 5.55745C23.6892 5.09738 22.2201 4.4203 20.8685 3.54655C20.1674 3.08636 19.406 2.7254 18.606 2.47393C17.8068 2.2324 16.9757 2.11305 16.1409 2.11994C15.2998 2.1145 14.4626 2.23379 13.6566 2.47393C12.8553 2.71722 12.0949 3.07875 11.4004 3.54655C10.0464 4.42507 8.5736 5.10512 7.02678 5.56598C5.51487 6.00526 3.93259 6.27395 2.27355 6.37204V12.8056C2.27355 14.2195 2.45694 15.5714 2.82372 16.8744C3.19738 18.166 3.71228 19.4124 4.35908 20.5912C5.01364 21.7823 5.78512 22.9052 6.66213 23.9434C7.55136 24.9905 8.5003 25.965 9.52387 26.8905C10.5474 27.8181 11.6201 28.6711 12.7417 29.4622C13.8741 30.2555 15.0085 30.9741 16.1409 31.6309C17.3003 30.9559 18.4308 30.2324 19.5293 29.4622C20.6584 28.6736 21.7367 27.8146 22.7579 26.8905C23.7814 25.965 24.7325 24.9905 25.6217 23.9434C26.4988 22.9053 27.2703 21.7823 27.9248 20.5912C28.5687 19.4139 29.076 18.1669 29.4367 16.8744C29.8146 15.5514 30.0027 14.1815 29.9954 12.8056V6.36138Z" fill="white"/>
<path fill-rule="evenodd" clip-rule="evenodd" d="M24.0799 10.0419L23.1416 9.23584L22.2758 9.31048L12.9783 20.2883L9.81166 15.7675L8.95868 15.6225L7.97136 16.3284L7.82422 17.1813L11.8951 22.9944L12.3578 23.2503L13.3323 23.31L13.8313 23.0925L24.1417 10.9055L24.0799 10.0419Z" fill="white"/>
</svg>
