<svg width="14" height="15" viewBox="0 0 14 15" fill="none" xmlns="http://www.w3.org/2000/svg">
    <g clip-path="url(#clip0)">
    <path d="M5.63456 11.7652C6.8859 11.7652 8.10145 11.3477 9.08866 10.5788L12.8131 14.3032C13.0913 14.5719 13.5347 14.5642 13.8034 14.286C14.0655 14.0146 14.0655 13.5843 13.8034 13.3129L10.0789 9.58849C11.987 7.13234 11.5427 3.59449 9.08651 1.68646C6.63036 -0.221571 3.09253 0.222743 1.18451 2.67889C-0.723524 5.13504 -0.27921 8.6729 2.17694 10.5809C3.16576 11.3491 4.3824 11.7658 5.63456 11.7652ZM2.642 3.1418C4.29476 1.48901 6.97442 1.48898 8.62721 3.14174C10.28 4.7945 10.28 7.47416 8.62727 9.12695C6.97451 10.7797 4.29485 10.7798 2.64206 9.12701C2.64203 9.12698 2.64203 9.12698 2.642 9.12695C0.98924 7.48623 0.979502 4.81634 2.62022 3.16358C2.62747 3.1563 2.63472 3.14905 2.642 3.1418Z" fill="#8B8B8B"/>
    </g>
    <defs>
    <clipPath id="clip0">
    <rect width="14" height="14" fill="white" transform="translate(0 0.5)"/>
    </clipPath>
    </defs>
    </svg>
    