<svg width="32" height="32" viewBox="0 0 32 32" fill="none" xmlns="http://www.w3.org/2000/svg">
    <path d="M18.6663 2.66666H7.99967C7.29243 2.66666 6.61415 2.94761 6.11406 3.4477C5.61396 3.9478 5.33301 4.62608 5.33301 5.33332V26.6667C5.33301 27.3739 5.61396 28.0522 6.11406 28.5523C6.61415 29.0524 7.29243 29.3333 7.99967 29.3333H23.9997C24.7069 29.3333 25.3852 29.0524 25.8853 28.5523C26.3854 28.0522 26.6663 27.3739 26.6663 26.6667V10.6667L18.6663 2.66666Z" stroke="white" stroke-width="2" stroke-linecap="round" stroke-linejoin="round"/>
    <path d="M18.667 2.66666V10.6667H26.667" stroke="white" stroke-width="2" stroke-linecap="round" stroke-linejoin="round"/>
    <path d="M21.3337 17.3333H10.667" stroke="white" stroke-width="2" stroke-linecap="round" stroke-linejoin="round"/>
    <path d="M21.3337 22.6667H10.667" stroke="white" stroke-width="2" stroke-linecap="round" stroke-linejoin="round"/>
    <path d="M13.3337 12H12.0003H10.667" stroke="white" stroke-width="2" stroke-linecap="round" stroke-linejoin="round"/>
    </svg>
    