<svg width="14" height="9" viewBox="0 0 14 9" fill="none" xmlns="http://www.w3.org/2000/svg">
    <path d="M7 8.75C2.42014 8.75 0.149516 4.75738 0.055125 4.58752C-0.018375 4.45528 -0.018375 4.29461 0.055125 4.16237C0.149516 3.99262 2.42014 0 7 0C11.5799 0 13.8505 3.99262 13.9449 4.16248C14.0184 4.29472 14.0184 4.45539 13.9449 4.58763C13.8505 4.75738 11.5799 8.75 7 8.75ZM0.952328 4.37434C1.47273 5.16305 3.51597 7.875 7 7.875C10.4951 7.875 12.5292 5.16523 13.0477 4.37566C12.5273 3.58695 10.484 0.875 7 0.875C3.50492 0.875 1.47077 3.58477 0.952328 4.37434ZM7 7C5.55253 7 4.375 5.82247 4.375 4.375C4.375 2.92753 5.55253 1.75 7 1.75C8.44747 1.75 9.625 2.92753 9.625 4.375C9.625 5.82247 8.44747 7 7 7ZM7 2.625C6.03509 2.625 5.25 3.41009 5.25 4.375C5.25 5.33991 6.03509 6.125 7 6.125C7.96491 6.125 8.75 5.33991 8.75 4.375C8.75 3.41009 7.96491 2.625 7 2.625Z" fill="#52A9DD"/>
    </svg>
    