<svg xmlns="http://www.w3.org/2000/svg" width="175.66" height="56.431" viewBox="0 0 175.66 56.431">
    <defs>
        <style>
            .cls-1{fill:#29aae2}.cls-2{fill:#4b4b4b}
        </style>
    </defs>
    <g id="Group_49443" transform="translate(-599.34 -102.924)">
        <g id="Group_49442" transform="translate(599.34 102.924)">
            <path id="Path_203"
                  d="M1059.182 1909.339l-5.086 5.234v-4.745a20.614 20.614 0 0 1 20.553-20.556h4.519l4.559 4.433 1.14 1.107-1.14 1.107-4.356 4.233h-1.814a12.239 12.239 0 0 0-12.2 12.2v3.34z"
                  class="cls-1" transform="translate(-1054.096 -1889.273)"/>
            <path id="Path_204"
                  d="M1102.212 1909.828v5.445l-4.187 4.31-1.108 1.138-1.105-1.138-4.861-5v-2.226a12.236 12.236 0 0 0-12.2-12.2h-2.023l5.5-5.34-5.7-5.54h5.129a20.616 20.616 0 0 1 20.554 20.556"
                  class="cls-1" transform="translate(-1045.783 -1889.273)"/>
            <path id="Path_205"
                  d="M1073.843 1934.038l4.836 4.7h-4.031a20.615 20.615 0 0 1-20.553-20.555v-4.9l3.978-4.1 1.108-1.136 1.11 1.136 5.062 5.214v1.256a12.238 12.238 0 0 0 12.2 12.2h2.647z"
                  class="cls-1" transform="translate(-1054.096 -1882.312)"/>
            <path id="Path_206"
                  d="M1103.652 1912.569v4.2a20.617 20.617 0 0 1-20.555 20.554h-5.615l-3.7-3.593-1.14-1.11 1.14-1.108 5.219-5.068h1.185a12.236 12.236 0 0 0 12.2-12.2v-2.373l5.966 6.144z"
                  class="cls-1" transform="translate(-1047.222 -1880.896)"/>
        </g>
        <g id="Group_49441" transform="translate(670.814 111.819)">
            <path id="Path_207"
                  d="M1050.795 1956.016a14.411 14.411 0 0 0-5.635-2.218 9.124 9.124 0 0 1-3.424-1.2 2.208 2.208 0 0 1-.832-1.849 2.732 2.732 0 0 1 .958-2.086 4.19 4.19 0 0 1 2.9-.88 4.108 4.108 0 0 1 2.9 1.063 3.183 3.183 0 0 1 1.146 2.376h3.51l.04-.114a5.352 5.352 0 0 0-2.034-4.35 9.272 9.272 0 0 0-11.007-.112 5.338 5.338 0 0 0-2.1 4.218 4.335 4.335 0 0 0 1.915 3.695 14.631 14.631 0 0 0 5.482 2.149 8.944 8.944 0 0 1 3.5 1.34 2.47 2.47 0 0 1 .925 1.983 2.54 2.54 0 0 1-1.11 2.117 5.034 5.034 0 0 1-3.073.837 5.637 5.637 0 0 1-3.193-.913 3.388 3.388 0 0 1-1.457-2.864h-3.506l-.038.111a5.591 5.591 0 0 0 2.11 4.574 8.863 8.863 0 0 0 6.088 1.958 8.955 8.955 0 0 0 5.685-1.7 5.306 5.306 0 0 0 2.174-4.385 4.472 4.472 0 0 0-1.925-3.753"
                  class="cls-2" transform="translate(-1036.658 -1936.767)"/>
            <path id="Path_208"
                  d="M1107.986 1945.208c-3.413 0-5.562 2.072-7.153 3.544v-3.1h-3v29.309h3V1962.7c2.061 1.737 3.708 3.373 7.153 3.373a10.5 10.5 0 0 0 10.186-10.407c0-5.474-4.594-10.461-10.186-10.461m0 17.983c-3.649 0-7.238-3.932-7.238-7.522 0-3.563 3.589-7.607 7.238-7.607s7.271 4.043 7.271 7.607c0 3.59-3.619 7.522-7.271 7.522"
                  class="cls-2" transform="translate(-1013.987 -1936.651)"/>
            <path id="Path_209"
                  d="M1094.319 1948.117c-2.172-1.839-3.663-2.846-7.246-2.846-5.82 0-9.87 4.471-9.87 10.226s3.906 10.475 9.723 10.475a9.9 9.9 0 0 0 7.392-3.307v2.985h3.2v-20.05h-3.2zm-7.392 14.854c-3.8 0-6.687-3.709-6.687-7.475s3.036-7.223 6.833-7.223a7.684 7.684 0 0 1 7.417 7.223c0 3.766-3.766 7.475-7.563 7.475"
                  class="cls-2" transform="translate(-1021.633 -1936.627)"/>
            <path id="Path_210"
                  d="M1070.517 1948.73l-.023-3.1h-3.474v19.988h3.646l-.112-12.632c.307-.811 2.572-6.306 6.633-3.419v-3.967s-3.861-1.743-6.669 3.129"
                  class="cls-2" transform="translate(-1025.407 -1936.617)"/>
            <path id="Path_211"
                  d="M1052.3 1938.964v29h3.491v-9.3l7.808 9.3h4.264l-8.748-10.211 8.232-9.788h-4.318l-7.2 8.754v-17.757z"
                  class="cls-2" transform="translate(-1030.861 -1938.964)"/>
        </g>
    </g>
</svg>
