<svg width="32" height="33" viewBox="0 0 32 33" fill="none" xmlns="http://www.w3.org/2000/svg">
<path d="M26.6668 7.46339C28.1394 7.46339 29.3335 6.26929 29.3335 4.79663C29.3335 3.32373 28.1397 2.12988 26.6668 2.12988C25.1941 2.12988 24 3.32373 24 4.79663C24.0017 6.26856 25.1946 7.46143 26.6668 7.46339ZM26.6668 3.19653C27.5503 3.19653 28.2669 3.91284 28.2669 4.79663C28.2669 5.68018 27.5503 6.39649 26.6668 6.39649C25.783 6.39649 25.0667 5.68018 25.0667 4.79663C25.0667 3.91284 25.783 3.19653 26.6668 3.19653Z" fill="#677790"/>
<path d="M9.06641 18.6636C9.06641 19.8418 10.0215 20.7969 11.1997 20.7969C12.3779 20.7969 13.333 19.8418 13.333 18.6636C13.333 17.4854 12.3779 16.5303 11.1997 16.5303C10.0215 16.5303 9.06641 17.4854 9.06641 18.6636ZM12.2664 18.6636C12.2664 19.2527 11.7888 19.7302 11.1997 19.7302C10.6106 19.7302 10.1331 19.2527 10.1331 18.6636C10.1331 18.0745 10.6106 17.5969 11.1997 17.5969C11.7888 17.5969 12.2664 18.0745 12.2664 18.6636Z" fill="#677790"/>
<path d="M28.801 24.5303C27.9175 24.5303 27.2012 25.2466 27.2012 26.1301C27.2012 27.0139 27.9175 27.7302 28.801 27.7302C29.6848 27.7302 30.4011 27.0139 30.4011 26.1301C30.4011 25.2466 29.6848 24.5303 28.801 24.5303ZM28.801 26.6636C28.5066 26.6636 28.2678 26.4248 28.2678 26.1301C28.2678 25.8357 28.5066 25.5969 28.801 25.5969C29.0957 25.5969 29.3345 25.8357 29.3345 26.1301C29.3345 26.4248 29.0957 26.6636 28.801 26.6636Z" fill="#677790"/>
<path d="M19.1997 17.5967H18.1331C17.5439 17.5967 17.0664 18.0742 17.0664 18.6633V20.7966C17.0664 21.3857 17.5439 21.8635 18.1331 21.8635H19.1997C19.7888 21.8635 20.2664 21.3857 20.2664 20.7966V20.2634H19.1997V20.7966H18.1331V18.6633H19.1997V19.1968H20.2664V18.6633C20.2664 18.0742 19.7888 17.5967 19.1997 17.5967Z" fill="#677790"/>
<path d="M23.4675 17.5967H22.4006C21.8118 17.5967 21.334 18.0742 21.334 18.6633V20.7966C21.334 21.3857 21.8118 21.8635 22.4006 21.8635H23.4675C24.0566 21.8635 24.5342 21.3857 24.5342 20.7966V18.6633C24.5342 18.0742 24.0566 17.5967 23.4675 17.5967ZM23.4675 20.7969H22.4006V18.6633H23.4675V20.7969Z" fill="#677790"/>
<path d="M29.8538 14.2047C30.9827 12.4796 30.4993 10.1656 28.774 9.03671C27.0486 7.90755 24.7347 8.39095 23.6057 10.1163C23.5606 10.1854 23.5176 10.2559 23.4771 10.328C21.8218 8.25936 18.8032 7.9244 16.7346 9.57968C14.666 11.235 14.3311 14.2535 15.9864 16.3221C16.0012 16.3404 16.0161 16.359 16.031 16.377C14.3557 17.692 13.908 20.0416 14.982 21.8807C14.6839 22.0502 14.4065 22.2543 14.1565 22.4891C12.1453 22.0345 10.1463 23.2963 9.69166 25.3072C9.66994 25.4029 9.65211 25.4996 9.63795 25.597H8.53346V24.5304C8.53346 24.2357 8.29469 23.9969 8.00001 23.9969H5.86671C5.57227 23.9969 5.3335 24.2357 5.3335 24.5304V25.0636H0.533448C0.23877 25.0636 0 25.3024 0 25.597V29.8636C0 30.1583 0.23877 30.3971 0.533448 30.3971H5.3335V30.9303C5.3335 31.225 5.57227 31.4637 5.86671 31.4637H8.00001C8.29469 31.4637 8.53346 31.225 8.53346 30.9303V29.8636H17.0669C18.8858 29.8646 20.5047 28.7111 21.0979 26.9916C21.5186 27.1283 21.958 27.1976 22.4002 27.1969C24.4136 27.1854 26.1487 25.7765 26.573 23.8082C29.5162 23.8619 31.9454 21.5196 31.9991 18.5765C32.0306 16.8587 31.2317 15.2311 29.8538 14.2047ZM5.3335 29.3304H1.06665V26.1302H5.3335V29.3304ZM7.46681 26.1302V30.3971H6.40016V25.0636H7.46681V26.1302ZM26.667 22.7421C26.5042 22.7413 26.3413 22.7313 26.1795 22.712C26.0359 22.6942 25.8914 22.7367 25.7801 22.8295C25.668 22.9205 25.5982 23.0536 25.5865 23.1974C25.441 24.8509 24.0603 26.1217 22.4002 26.1302C21.9053 26.1305 21.4173 26.0145 20.9751 25.7916C20.7117 25.66 20.3914 25.7667 20.2598 26.0304C20.2371 26.0756 20.221 26.1236 20.2119 26.1735C19.9361 27.6935 18.6118 28.7982 17.0669 28.797H8.53346V26.6637H10.1336C10.428 26.6637 10.6668 26.4249 10.6668 26.1302C10.6673 24.6576 11.8613 23.464 13.3342 23.4642C13.6121 23.4645 13.8882 23.5079 14.1526 23.5931C14.3511 23.6571 14.5686 23.5997 14.7095 23.4459C15.0542 23.0672 15.4842 22.7762 15.9639 22.597C16.2403 22.495 16.3816 22.1881 16.2796 21.912C16.2591 21.8563 16.2293 21.8043 16.1917 21.7584C15.072 20.3912 15.2727 18.3749 16.6402 17.2552C16.7874 17.1346 16.9448 17.0274 17.1111 16.9349C17.3684 16.7916 17.4607 16.4667 17.3172 16.2093C17.2893 16.1598 17.2539 16.1148 17.2119 16.0763C16.4373 15.3739 15.9968 14.3758 16.0003 13.3302C15.999 11.2699 17.6682 9.59847 19.7288 9.59725C21.1607 9.59652 22.4668 10.4154 23.0899 11.7047C23.189 11.9046 23.4009 12.023 23.6233 12.0028C23.846 11.9801 24.031 11.8206 24.0862 11.6038C24.4436 10.1751 25.8916 9.30648 27.3204 9.66415C28.7491 10.0216 29.6175 11.4696 29.2601 12.8983C29.159 13.3026 28.9644 13.6776 28.6922 13.9933C28.5003 14.2166 28.5259 14.5533 28.7493 14.7452C28.7732 14.7657 28.7989 14.784 28.826 14.8001C30.8575 15.9906 31.5394 18.6026 30.3489 20.6341C29.583 21.9408 28.1817 22.7433 26.667 22.7421Z" fill="#677790"/>
<path d="M28.8645 17.0632C28.8645 16.1438 28.1191 15.3984 27.2 15.3984C26.7583 15.3984 26.335 15.5737 26.0227 15.886L25.2227 16.686L25.9768 17.4402L26.7769 16.6401C27.0134 16.4141 27.386 16.4141 27.6228 16.6401C27.856 16.874 27.856 17.2522 27.6228 17.4861L25.7561 19.3528C25.5479 19.561 25.5479 19.8987 25.7561 20.1069C25.8562 20.207 25.9917 20.2632 26.1331 20.2632H28.7998V19.1965H27.4207L28.377 18.2402C28.6902 17.9287 28.8657 17.5049 28.8645 17.0632Z" fill="#677790"/>
</svg>
