<svg width="32" height="33" viewBox="0 0 32 33" fill="none" xmlns="http://www.w3.org/2000/svg">
<path d="M26.6668 7.46314C28.1394 7.46314 29.3335 6.26905 29.3335 4.79639C29.3335 3.32349 28.1397 2.12964 26.6668 2.12964C25.1941 2.12964 24 3.32349 24 4.79639C24.0017 6.26832 25.1946 7.46119 26.6668 7.46314ZM26.6668 3.19629C27.5503 3.19629 28.2669 3.9126 28.2669 4.79639C28.2669 5.67994 27.5503 6.39625 26.6668 6.39625C25.783 6.39625 25.0667 5.67994 25.0667 4.79639C25.0667 3.9126 25.783 3.19629 26.6668 3.19629Z" fill="#677790"/>
<path d="M9.06738 18.6631C9.06738 19.8413 10.0225 20.7964 11.2007 20.7964C12.3789 20.7964 13.334 19.8413 13.334 18.6631C13.334 17.4849 12.3789 16.5298 11.2007 16.5298C10.0225 16.5298 9.06738 17.4849 9.06738 18.6631ZM12.2673 18.6631C12.2673 19.2522 11.7898 19.7297 11.2007 19.7297C10.6116 19.7297 10.134 19.2522 10.134 18.6631C10.134 18.074 10.6116 17.5964 11.2007 17.5964C11.7898 17.5964 12.2673 18.074 12.2673 18.6631Z" fill="#677790"/>
<path d="M28.8001 24.53C27.9165 24.53 27.2002 25.2463 27.2002 26.1299C27.2002 27.0137 27.9165 27.73 28.8001 27.73C29.6838 27.73 30.4002 27.0137 30.4002 26.1299C30.4002 25.2463 29.6838 24.53 28.8001 24.53ZM28.8001 26.6633C28.5056 26.6633 28.2668 26.4246 28.2668 26.1299C28.2668 25.8355 28.5056 25.5967 28.8001 25.5967C29.0947 25.5967 29.3335 25.8355 29.3335 26.1299C29.3335 26.4246 29.0947 26.6633 28.8001 26.6633Z" fill="#677790"/>
<path d="M19.2007 17.5964H18.134C17.5449 17.5964 17.0674 18.074 17.0674 18.6631V20.7964C17.0674 21.3855 17.5449 21.8633 18.134 21.8633H19.2007C19.7898 21.8633 20.2673 21.3855 20.2673 20.7964V20.2632H19.2007V20.7964H18.134V18.6631H19.2007V19.1965H20.2673V18.6631C20.2673 18.074 19.7898 17.5964 19.2007 17.5964Z" fill="#677790"/>
<path d="M23.4675 17.5964H22.4006C21.8118 17.5964 21.334 18.074 21.334 18.6631V20.7964C21.334 21.3855 21.8118 21.8633 22.4006 21.8633H23.4675C24.0566 21.8633 24.5342 21.3855 24.5342 20.7964V18.6631C24.5342 18.074 24.0566 17.5964 23.4675 17.5964ZM23.4675 20.7966H22.4006V18.6631H23.4675V20.7966Z" fill="#677790"/>
<path d="M29.8538 14.2044C30.9827 12.4793 30.4993 10.1654 28.774 9.03646C27.0486 7.90731 24.7347 8.39071 23.6057 10.1161C23.5606 10.1851 23.5176 10.2557 23.4771 10.3277C21.8218 8.25912 18.8032 7.92415 16.7346 9.57943C14.666 11.2347 14.3311 14.2533 15.9864 16.3219C16.0012 16.3402 16.0161 16.3587 16.031 16.3768C14.3557 17.6917 13.908 20.0414 14.982 21.8805C14.6839 22.0499 14.4065 22.254 14.1565 22.4889C12.1453 22.0343 10.1463 23.296 9.69166 25.307C9.66994 25.4027 9.65211 25.4994 9.63795 25.5968H8.53346V24.5301C8.53346 24.2355 8.29469 23.9967 8.00001 23.9967H5.86671C5.57227 23.9967 5.3335 24.2355 5.3335 24.5301V25.0633H0.533448C0.23877 25.0633 0 25.3021 0 25.5968V29.8634C0 30.1581 0.23877 30.3968 0.533448 30.3968H5.3335V30.9301C5.3335 31.2247 5.57227 31.4635 5.86671 31.4635H8.00001C8.29469 31.4635 8.53346 31.2247 8.53346 30.9301V29.8634H17.0669C18.8858 29.8644 20.5047 28.7108 21.0979 26.9913C21.5186 27.128 21.958 27.1974 22.4002 27.1966C24.4136 27.1852 26.1487 25.7762 26.573 23.808C29.5162 23.8617 31.9454 21.5194 31.9991 18.5763C32.0306 16.8585 31.2317 15.2308 29.8538 14.2044ZM5.3335 29.3302H1.06665V26.13H5.3335V29.3302ZM7.46681 26.13V30.3968H6.40016V25.0633H7.46681V26.13ZM26.667 22.7418C26.5042 22.7411 26.3413 22.7311 26.1795 22.7118C26.0359 22.694 25.8914 22.7364 25.7801 22.8292C25.668 22.9203 25.5982 23.0533 25.5865 23.1971C25.441 24.8507 24.0603 26.1215 22.4002 26.13C21.9053 26.1302 21.4173 26.0143 20.9751 25.7914C20.7117 25.6598 20.3914 25.7665 20.2598 26.0301C20.2371 26.0753 20.221 26.1234 20.2119 26.1732C19.9361 27.6932 18.6118 28.798 17.0669 28.7967H8.53346V26.6634H10.1336C10.428 26.6634 10.6668 26.4247 10.6668 26.13C10.6673 24.6573 11.8613 23.4637 13.3342 23.464C13.6121 23.4642 13.8882 23.5077 14.1526 23.5929C14.3511 23.6568 14.5686 23.5995 14.7095 23.4457C15.0542 23.067 15.4842 22.776 15.9639 22.5968C16.2403 22.4947 16.3816 22.1878 16.2796 21.9117C16.2591 21.8561 16.2293 21.8041 16.1917 21.7582C15.072 20.391 15.2727 18.3746 16.6402 17.255C16.7874 17.1344 16.9448 17.0272 17.1111 16.9347C17.3684 16.7914 17.4607 16.4664 17.3172 16.2091C17.2893 16.1595 17.2539 16.1146 17.2119 16.076C16.4373 15.3736 15.9968 14.3756 16.0003 13.3299C15.999 11.2696 17.6682 9.59823 19.7288 9.59701C21.1607 9.59628 22.4668 10.4151 23.0899 11.7044C23.189 11.9044 23.4009 12.0228 23.6233 12.0025C23.846 11.9798 24.031 11.8204 24.0862 11.6036C24.4436 10.1749 25.8916 9.30624 27.3204 9.6639C28.7491 10.0213 29.6175 11.4693 29.2601 12.898C29.159 13.3023 28.9644 13.6773 28.6922 13.993C28.5003 14.2164 28.5259 14.5531 28.7493 14.745C28.7732 14.7655 28.7989 14.7838 28.826 14.7999C30.8575 15.9903 31.5394 18.6024 30.3489 20.6339C29.583 21.9405 28.1817 22.743 26.667 22.7418Z" fill="#677790"/>
<path d="M28.8655 17.0632C28.8655 16.1438 28.1201 15.3984 27.2009 15.3984C26.7593 15.3984 26.3359 15.5737 26.0237 15.886L25.2236 16.686L25.9778 17.4402L26.7778 16.6401C27.0144 16.4141 27.387 16.4141 27.6238 16.6401C27.8569 16.874 27.8569 17.2522 27.6238 17.4861L25.7571 19.3528C25.5488 19.561 25.5488 19.8987 25.7571 20.1069C25.8572 20.207 25.9927 20.2632 26.134 20.2632H28.8008V19.1965H27.4216L28.3779 18.2402C28.6912 17.9287 28.8667 17.5049 28.8655 17.0632Z" fill="#677790"/>
</svg>
