<svg width="19" height="25" viewBox="0 0 19 25" fill="none" xmlns="http://www.w3.org/2000/svg">
    <path d="M14.0833 17.2917C14.0833 17.5218 14.2699 17.7083 14.5 17.7083C14.7301 17.7083 14.9167 17.5218 14.9167 17.2917C14.8764 16.3577 14.1757 15.5853 13.25 15.4546V15.4167C13.25 15.1865 13.0635 15 12.8333 15C12.6032 15 12.4167 15.1865 12.4167 15.4167V15.4546C11.4713 15.547 10.7503 16.3418 10.7503 17.2917C10.7503 18.2416 11.4713 19.0364 12.4167 19.1288V21.1858C11.953 21.0806 11.6138 20.6828 11.5833 20.2083C11.5833 19.9782 11.3968 19.7917 11.1667 19.7917C10.9365 19.7917 10.75 19.9782 10.75 20.2083C10.7902 21.1423 11.491 21.9147 12.4167 22.0454V22.0833C12.4167 22.3135 12.6032 22.5 12.8333 22.5C13.0635 22.5 13.25 22.3135 13.25 22.0833V22.0454C14.1954 21.953 14.9163 21.1582 14.9163 20.2083C14.9163 19.2584 14.1954 18.4636 13.25 18.3712V16.3142C13.7137 16.4194 14.0528 16.8172 14.0833 17.2917ZM11.5833 17.2917C11.6138 16.8172 11.953 16.4194 12.4167 16.3142V18.2692C11.953 18.164 11.6138 17.7662 11.5833 17.2917ZM14.0833 20.2083C14.0528 20.6828 13.7137 21.0806 13.25 21.1858V19.2308C13.7137 19.336 14.0528 19.7338 14.0833 20.2083Z" fill="black"/>
    <path d="M0.750651 6.45833C0.520532 6.45833 0.333984 6.64488 0.333984 6.875V22.5C0.335362 23.8801 1.45384 24.9986 2.83398 25H16.1673C17.5475 24.9986 18.6659 23.8801 18.6673 22.5V6.25C18.6673 6.1395 18.6234 6.03354 18.5452 5.95542L12.7119 0.122083C12.6338 0.0439378 12.5278 2.36e-05 12.4173 0H2.83398C1.45384 0.00137807 0.335362 1.11986 0.333984 2.5V5C0.333984 5.23012 0.520532 5.41667 0.750651 5.41667C0.98077 5.41667 1.16732 5.23012 1.16732 5V2.5C1.16732 1.57953 1.91351 0.833333 2.83398 0.833333H12.0007V4.16667C12.002 5.54681 13.1205 6.66529 14.5007 6.66667H17.834V22.5C17.834 23.4205 17.0878 24.1667 16.1673 24.1667H2.83398C1.91351 24.1667 1.16732 23.4205 1.16732 22.5V6.875C1.16732 6.64488 0.98077 6.45833 0.750651 6.45833ZM12.834 4.16667V1.4225L17.2448 5.83333H14.5007C13.5802 5.83333 12.834 5.08714 12.834 4.16667Z" fill="black"/>
    <path d="M3.25 22.0833C3.25 22.3135 3.43655 22.5 3.66667 22.5H5.33333C5.56345 22.5 5.75 22.3135 5.75 22.0833C5.75 21.8532 5.56345 21.6667 5.33333 21.6667H4.08333V20.4167C4.08333 20.1865 3.89679 20 3.66667 20C3.43655 20 3.25 20.1865 3.25 20.4167V22.0833Z" fill="black"/>
    <path d="M3.66667 9.16634H14.9167C15.1468 9.16634 15.3333 8.97979 15.3333 8.74967C15.3333 8.51956 15.1468 8.33301 14.9167 8.33301H3.66667C3.43655 8.33301 3.25 8.51956 3.25 8.74967C3.25 8.97979 3.43655 9.16634 3.66667 9.16634Z" fill="black"/>
    <path d="M3.66667 11.6663H14.9167C15.1468 11.6663 15.3333 11.4798 15.3333 11.2497C15.3333 11.0196 15.1468 10.833 14.9167 10.833H3.66667C3.43655 10.833 3.25 11.0196 3.25 11.2497C3.25 11.4798 3.43655 11.6663 3.66667 11.6663Z" fill="black"/>
    <path d="M3.66667 14.1663H14.9167C15.1468 14.1663 15.3333 13.9798 15.3333 13.7497C15.3333 13.5196 15.1468 13.333 14.9167 13.333H3.66667C3.43655 13.333 3.25 13.5196 3.25 13.7497C3.25 13.9798 3.43655 14.1663 3.66667 14.1663Z" fill="black"/>
    <path d="M3.66667 16.6663H9.5C9.73012 16.6663 9.91667 16.4798 9.91667 16.2497C9.91667 16.0196 9.73012 15.833 9.5 15.833H3.66667C3.43655 15.833 3.25 16.0196 3.25 16.2497C3.25 16.4798 3.43655 16.6663 3.66667 16.6663Z" fill="black"/>
    </svg>
    