<svg width="32" height="32" viewBox="0 0 32 32" fill="none" xmlns="http://www.w3.org/2000/svg">
<path d="M27.9993 16.2933C27.9993 8.97333 22.3193 4 15.9993 4C9.74602 4 3.99935 8.86667 3.99935 16.3733C3.19935 16.8267 2.66602 17.68 2.66602 18.6667V21.3333C2.66602 22.8 3.86602 24 5.33268 24H6.66602V15.8667C6.66602 10.7067 10.8393 6.53333 15.9993 6.53333C21.1593 6.53333 25.3327 10.7067 25.3327 15.8667V25.3333H14.666V28H25.3327C26.7993 28 27.9993 26.8 27.9993 25.3333V23.7067C28.786 23.2933 29.3327 22.48 29.3327 21.52V18.4533C29.3327 17.52 28.786 16.7067 27.9993 16.2933V16.2933Z" fill="white"/>
<path d="M11.9993 18.6667C12.7357 18.6667 13.3327 18.0697 13.3327 17.3333C13.3327 16.597 12.7357 16 11.9993 16C11.263 16 10.666 16.597 10.666 17.3333C10.666 18.0697 11.263 18.6667 11.9993 18.6667Z" fill="white"/>
<path d="M19.9993 18.6667C20.7357 18.6667 21.3327 18.0697 21.3327 17.3333C21.3327 16.597 20.7357 16 19.9993 16C19.263 16 18.666 16.597 18.666 17.3333C18.666 18.0697 19.263 18.6667 19.9993 18.6667Z" fill="white"/>
<path d="M24.0006 14.7067C23.6827 12.8322 22.7118 11.1306 21.2599 9.90317C19.8079 8.67573 17.9685 8.00156 16.0673 8C12.0273 8 7.68061 11.3467 8.02728 16.6C9.67146 15.9272 11.1236 14.858 12.2542 13.4877C13.3849 12.1174 14.1589 10.4887 14.5073 8.74667C16.2539 12.2533 19.8406 14.6667 24.0006 14.7067Z" fill="white"/>
</svg>
