<svg width="23" height="23" viewBox="0 0 23 23" fill="none" xmlns="http://www.w3.org/2000/svg">
    <g clip-path="url(#clip0)">
    <path d="M16.2914 2.65337C15.7518 2.65337 15.227 2.71748 14.724 2.8385C13.3528 1.77281 11.6556 1.18214 9.9054 1.16821C7.76896 1.15181 5.75547 1.97065 4.2385 3.47562C2.71956 4.98253 1.88307 6.99157 1.88307 9.13259C1.88307 9.66195 1.75208 10.1891 1.50424 10.657L0.156721 13.2009C-0.0620481 13.6123 -0.051222 14.0981 0.185696 14.5003C0.422704 14.9027 0.842499 15.1479 1.30865 15.156L1.88091 15.1561V17.1926C1.88091 18.4103 2.87072 19.4011 4.0873 19.4011H5.52134V19.9966C5.52134 21.0086 6.34399 21.832 7.35514 21.832H13.6576C14.6688 21.832 15.4914 21.0086 15.4914 19.9966V18.6778C15.4914 17.8017 15.5812 16.9255 15.7587 16.0657C15.9345 16.0795 16.1121 16.0866 16.2914 16.0866C19.9905 16.0866 23 13.0735 23 9.36996C23 5.66646 19.9905 2.65337 16.2914 2.65337ZM14.1438 18.6778V19.9966C14.1438 20.2655 13.9257 20.4843 13.6576 20.4843H7.35514C7.08704 20.4843 6.86895 20.2655 6.86895 19.9966V19.2362C6.86895 18.584 6.33869 18.0534 5.68683 18.0534H4.0873C3.61377 18.0534 3.22852 17.6673 3.22852 17.1926V14.9913C3.22852 14.339 2.69827 13.8084 2.04641 13.8084H1.35986L2.69503 11.2878C3.04547 10.6262 3.23068 9.88099 3.23068 9.1325C3.23068 7.35346 3.92567 5.68425 5.18761 4.43228C6.44763 3.18224 8.11841 2.50288 9.89466 2.51573C11.0578 2.52499 12.1924 2.84052 13.1824 3.41911C11.0443 4.54333 9.58268 6.78897 9.58268 9.36996C9.58268 12.4281 11.6346 15.0154 14.4324 15.8244C14.2408 16.7639 14.1438 17.7208 14.1438 18.6778ZM16.2914 14.7391C13.3353 14.7391 10.9304 12.3305 10.9304 9.37005C10.9304 6.40956 13.3353 4.00103 16.2914 4.00103C19.2474 4.00103 21.6524 6.40956 21.6524 9.37005C21.6524 12.3305 19.2474 14.7391 16.2914 14.7391Z" fill="black"/>
    <path d="M16.4196 5.15251C15.72 5.11752 15.0353 5.38018 14.5411 5.87445C14.278 6.13761 14.278 6.56423 14.5411 6.82738C14.8042 7.09053 15.2309 7.09053 15.494 6.82738C15.7226 6.59882 16.0275 6.48162 16.3514 6.49846C16.9099 6.52676 17.378 6.98528 17.417 7.5424C17.4521 8.04301 17.1624 8.49973 16.6962 8.67888C16.0512 8.92676 15.6179 9.56573 15.6179 10.2689C15.6179 10.6411 15.9196 10.9428 16.2917 10.9428C16.6639 10.9428 16.9655 10.6411 16.9655 10.2689C16.9655 10.1195 17.0516 9.98606 17.1797 9.93683C18.2026 9.54376 18.8382 8.54362 18.7613 7.44816C18.6741 6.20261 17.6674 5.21572 16.4196 5.15251Z" fill="black"/>
    <path d="M16.291 11.542C15.9189 11.542 15.6172 11.8437 15.6172 12.2158V12.9166C15.6172 13.2887 15.9189 13.5904 16.291 13.5904C16.6631 13.5904 16.9648 13.2887 16.9648 12.9166V12.2158C16.9648 11.8437 16.6631 11.542 16.291 11.542Z" fill="black"/>
    </g>
    <defs>
    <clipPath id="clip0">
    <rect width="23" height="23" fill="white"/>
    </clipPath>
    </defs>
    </svg>
    