<svg width="25" height="27" viewBox="0 0 25 27" fill="none" xmlns="http://www.w3.org/2000/svg">
    <g clip-path="url(#clip0)">
    <path d="M12.5 3.24023C7.65371 3.24023 3.71094 6.98745 3.71094 11.5934C3.71094 13.1495 4.1645 14.6682 5.0229 15.9858L11.9997 26.6712C12.1333 26.8759 12.3688 27.0002 12.622 27.0002C12.624 27.0002 12.6259 27.0002 12.6278 27.0002C12.8833 26.9983 13.1192 26.8701 13.2504 26.6618L20.0494 15.8729C20.8604 14.5832 21.2891 13.1034 21.2891 11.5934C21.2891 6.98745 17.3463 3.24023 12.5 3.24023ZM18.7923 15.1582L12.6109 24.967L6.26792 15.2523C5.55342 14.1556 5.16602 12.8904 5.16602 11.5934C5.16602 7.7551 8.46143 4.62314 12.5 4.62314C16.5386 4.62314 19.8291 7.7551 19.8291 11.5934C19.8291 12.8519 19.4672 14.0848 18.7923 15.1582Z" fill="#0D0D39"/>
    <path d="M12.5 7.98633C10.0769 7.98633 8.10547 10.1154 8.10547 12.7324C8.10547 15.3327 10.0448 17.4785 12.5 17.4785C14.9855 17.4785 16.8945 15.3041 16.8945 12.7324C16.8945 10.1154 14.9231 7.98633 12.5 7.98633ZM12.5 15.907C10.8761 15.907 9.56055 14.4815 9.56055 12.7324C9.56055 10.9878 10.8846 9.55781 12.5 9.55781C14.1154 9.55781 15.4346 10.9878 15.4346 12.7324C15.4346 14.4559 14.1496 15.907 12.5 15.907Z" fill="#0D0D39"/>
    </g>
    <defs>
    <clipPath id="clip0">
    <rect width="25" height="27" fill="white"/>
    </clipPath>
    </defs>
    </svg>
    