<svg width="32" height="33" viewBox="0 0 32 33" fill="none" xmlns="http://www.w3.org/2000/svg">
<g clip-path="url(#clip0_8120_11185)">
<path d="M28.5392 5.02071L28.2204 3.77456C27.8573 2.35539 26.3662 1.46995 24.9451 1.83379L19.912 3.12144L19.7299 2.40952C19.433 1.24937 18.2118 0.524251 17.0502 0.821711L11.8861 2.14281C10.7259 2.43964 10.001 3.66086 10.2982 4.82244L10.4803 5.53437L8.03538 6.15986C7.70092 6.24536 7.49921 6.58583 7.58478 6.92029C7.67035 7.25475 8.01082 7.45652 8.34528 7.37088L19.6163 4.48742C19.6166 4.48736 25.255 3.04481 25.255 3.04481C26.0161 2.85036 26.8151 3.32521 27.0094 4.08439L27.1732 4.725L4.88127 10.428C4.88127 10.428 4.69376 9.68187 4.68576 9.62355C4.63881 9.28146 4.32342 9.04251 3.98152 9.08926C3.63949 9.1362 3.40035 9.45154 3.44729 9.7935C3.4616 9.89807 3.82513 11.3434 3.82513 11.3434C3.89738 11.6259 4.15153 11.8136 4.43024 11.8136C4.48155 11.8136 6.22706 11.374 6.22706 11.374L7.86412 28.0625C7.97687 29.2237 8.9362 30.1009 10.1002 30.1123V32.1299C10.1002 32.475 10.3801 32.7549 10.7253 32.7549H23.4303C23.7756 32.7549 24.0554 32.475 24.0554 32.1299V30.1123C25.2194 30.1008 26.1787 29.2237 26.2914 28.0631L27.1346 19.4701C27.1683 19.1266 26.9171 18.8207 26.5735 18.787C26.2302 18.7539 25.9241 19.0044 25.8904 19.348L25.0472 27.9416C24.9962 28.4667 24.5599 28.8627 24.0323 28.8627H10.1232C9.59562 28.8627 9.15928 28.4667 9.10821 27.941L7.45234 11.0605L7.76155 10.9814H26.7113L26.4274 13.8742C26.3937 14.2178 26.6449 14.5237 26.9885 14.5574C27.3314 14.5904 27.6378 14.3399 27.6716 13.9963L28.0227 10.4174C28.058 10.0584 27.7624 9.73125 27.4007 9.73125H26.6181L26.4719 9.42754C25.9041 8.24739 24.6744 7.47408 23.3643 7.47408C22.8966 7.47408 22.4223 7.50496 21.9736 7.34545L28.0886 5.78102C28.4156 5.69745 28.623 5.34848 28.5392 5.02071ZM11.6126 3.79106C11.7423 3.57223 11.9494 3.41697 12.1959 3.3539L17.36 2.03274C17.4388 2.01261 17.5185 2.00267 17.5977 2.00267C17.7664 2.00267 17.9326 2.04786 18.0816 2.13612C18.3004 2.26582 18.4557 2.47296 18.5187 2.71941L18.7009 3.43128L11.6913 5.22454L11.5092 4.51261C11.4462 4.26609 11.4829 4.00989 11.6126 3.79106ZM22.8053 31.5048H11.3503V30.1131H22.8053V31.5048ZM23.3643 8.7243C24.1031 8.7243 24.8118 9.11026 25.212 9.73118H12.654L19.2805 8.038C19.7709 7.91086 20.2942 7.95774 20.7543 8.17013V8.17019L21.2661 8.40652C21.9404 8.71792 22.6405 8.7243 23.3643 8.7243Z" fill="#677790"/>
<path d="M22.4697 23.5808C22.7894 23.0272 22.7894 22.3661 22.4697 21.8125L21.3399 19.8556C21.1673 19.5567 20.785 19.4541 20.4861 19.6268C20.1871 19.7995 20.0847 20.1817 20.2573 20.4807L21.3872 22.4376C21.5862 22.7824 21.3298 23.2148 20.9384 23.2148H19.808L19.8323 23.1821C20.0382 22.905 19.9804 22.5135 19.7033 22.3076C19.4263 22.1018 19.0348 22.1595 18.8288 22.4366L18.0632 23.4671C17.9016 23.6844 17.9009 23.9909 18.0607 24.2093L18.8157 25.2397C18.9382 25.4068 19.128 25.4954 19.3204 25.4954C19.4486 25.4954 19.578 25.456 19.6893 25.3745C19.9678 25.1704 20.0281 24.7793 19.8241 24.5008L19.7977 24.4648H20.9384C21.5777 24.4648 22.1501 24.1343 22.4697 23.5808Z" fill="#677790"/>
<path d="M11.8823 23.581C12.202 24.1346 12.7744 24.4652 13.4136 24.4652H15.8293C16.1745 24.4652 16.4543 24.1853 16.4543 23.8401C16.4543 23.495 16.1745 23.2151 15.8293 23.2151H13.4136C13.0223 23.2151 12.7659 22.7827 12.965 22.4378L13.5492 21.4258L13.5601 21.4511C13.6617 21.6882 13.8924 21.8302 14.135 21.8302C14.217 21.8302 14.3006 21.8139 14.3808 21.7795C14.6981 21.6435 14.8452 21.2761 14.7092 20.9588L14.2067 19.7859C14.1 19.5368 13.8352 19.3823 13.5659 19.4105L12.2874 19.5469C11.9441 19.5834 11.6955 19.8914 11.7321 20.2347C11.7687 20.5778 12.0766 20.8268 12.4199 20.7899L12.4764 20.7839L11.8824 21.8128C11.5627 22.3664 11.5627 23.0274 11.8823 23.581Z" fill="#677790"/>
<path d="M17.5568 17.4937C17.5009 17.8344 17.7316 18.1558 18.0723 18.2118L19.3315 18.4186C19.5998 18.4624 19.8753 18.3205 19.9949 18.0751L20.5647 16.9285C20.7183 16.6194 20.5923 16.2443 20.2832 16.0906C19.974 15.9369 19.5989 16.0631 19.4453 16.3722L19.3916 16.4803L18.7073 15.2951C18.039 14.1375 16.3134 14.137 15.6447 15.2951L14.4452 17.3728C14.2726 17.6717 14.375 18.054 14.674 18.2266C14.973 18.3993 15.3552 18.2969 15.5278 17.9978L16.7273 15.9202C16.9244 15.5788 17.4276 15.5788 17.6247 15.9202L18.2328 16.9734C17.9082 16.9424 17.6104 17.1671 17.5568 17.4937Z" fill="#677790"/>
<path d="M27.361 16.4111C27.2301 16.097 26.8597 15.9421 26.5447 16.0729C26.2302 16.2035 26.0763 16.5744 26.2066 16.8893C26.3368 17.2037 26.7083 17.3581 27.0229 17.2274C27.3369 17.0969 27.492 16.7257 27.361 16.4111Z" fill="#677790"/>
<path d="M6.17941 7.1884C6.04846 6.87438 5.67806 6.71949 5.3631 6.85025C5.04851 6.98082 4.89462 7.35179 5.02495 7.66662C5.15514 7.98108 5.52667 8.13547 5.84126 8.00477C6.15528 7.87426 6.31035 7.50305 6.17941 7.1884Z" fill="#677790"/>
</g>
<defs>
<clipPath id="clip0_8120_11185">
<rect width="32" height="32" fill="white" transform="translate(0 0.754883)"/>
</clipPath>
</defs>
</svg>
