<svg width="18" height="18" viewBox="0 0 18 18" fill="none" xmlns="http://www.w3.org/2000/svg">
<path fill-rule="evenodd" clip-rule="evenodd" d="M12.4688 5.22839C12.6909 5.19708 12.9177 5.1806 13.1484 5.1806C15.8236 5.1806 18 7.35699 18 10.0322C18 12.7073 15.8236 14.8837 13.1484 14.8837C12.9177 14.8837 12.691 14.8671 12.4688 14.8358V17.2969C12.4688 17.6852 12.154 18 11.7657 18H0.703125C0.314758 18 0 17.6852 0 17.2969V2.76746C0 2.37909 0.314758 2.06433 0.703125 2.06433H3.44435C3.44771 2.06422 3.45106 2.06399 3.45443 2.06375C3.45919 2.06342 3.46397 2.0631 3.4688 2.0631C3.84357 2.0631 4.14844 1.75809 4.14844 1.38332V0.703125C4.14844 0.314758 4.4632 0 4.85156 0H7.61723C8.0056 0 8.32036 0.314758 8.32036 0.703125V1.38332C8.32036 1.75809 8.62523 2.0631 9 2.0631C9.00483 2.0631 9.00961 2.06342 9.01436 2.06375C9.01773 2.06399 9.02109 2.06422 9.02444 2.06433H11.7657C12.154 2.06433 12.4688 2.37909 12.4688 2.76746V5.22839ZM6.91425 1.40625H5.55455C5.54494 2.29999 4.97035 3.06065 4.17192 3.3474V4.14844H8.29688V3.3474C7.49844 3.06065 6.92386 2.29999 6.91425 1.40625ZM1.40625 16.5938H11.0625V14.4119C10.7758 14.2747 10.5044 14.1103 10.252 13.9219H3.4688C3.08043 13.9219 2.76567 13.6071 2.76567 13.2188C2.76567 12.8304 3.08043 12.5156 3.4688 12.5156H8.98228C8.48694 11.6877 8.24002 10.7168 8.30827 9.70312H3.4688C3.08043 9.70312 2.76567 9.38837 2.76567 9C2.76567 8.61163 3.08043 8.29688 3.4688 8.29688H8.61795C9.06468 7.13452 9.9462 6.18626 11.0625 5.65247V3.47058H9.70312V4.85156C9.70312 5.23993 9.38837 5.55469 9 5.55469H3.4688C3.08043 5.55469 2.76567 5.23993 2.76567 4.85156V3.47058H1.40625V16.5938ZM9.70312 10.0322C9.70312 11.9318 11.2486 13.4775 13.1484 13.4775C15.0482 13.4775 16.5938 11.9318 16.5938 10.0322C16.5938 8.13235 15.0482 6.58685 13.1484 6.58685C11.2486 6.58685 9.70312 8.13235 9.70312 10.0322ZM13.8516 7.94531V9.74089L15.069 10.9583C15.3436 11.2328 15.3436 11.6781 15.069 11.9527C14.7943 12.2274 14.3491 12.2272 14.0746 11.9527L12.6513 10.5293C12.5193 10.3975 12.4453 10.2187 12.4453 10.0322V7.94531C12.4453 7.55695 12.7601 7.24219 13.1484 7.24219C13.5368 7.24219 13.8516 7.55695 13.8516 7.94531Z" fill="#60A0F8"/>
</svg>
