<svg width="16" height="17" viewBox="0 0 16 17" fill="none" xmlns="http://www.w3.org/2000/svg">
<path d="M8 0.45166C3.57861 0.45166 0 4.02966 0 8.45166C0 12.873 3.578 16.4517 8 16.4517C12.4214 16.4517 16 12.8737 16 8.45166C16 4.03027 12.422 0.45166 8 0.45166ZM8 15.2017C4.26941 15.2017 1.25 12.1827 1.25 8.45166C1.25 6.85864 1.79846 5.3501 2.80542 4.14099L4.39709 5.73267C3.95251 6.23193 3.67554 6.88354 3.6554 7.59839C3.16199 8.09717 2.88452 8.76636 2.88452 9.47815C2.88452 10.9547 4.08569 12.1559 5.56226 12.1559H10.4377C10.5592 12.1559 10.6785 12.147 10.7957 12.1312L12.3107 13.6462C11.1014 14.6532 9.59302 15.2017 8 15.2017ZM4.9043 7.68188C4.9043 7.27905 5.04651 6.90894 5.28333 6.61877L9.57031 10.9059H5.56226C4.77502 10.9059 4.13452 10.2654 4.13452 9.47803C4.13452 9.04041 4.33179 8.63269 4.67566 8.3595C4.96851 8.12695 4.9043 7.81555 4.9043 7.68188ZM10.7235 8.07886C11.3853 8.21301 11.8655 8.80139 11.8655 9.47803C11.8655 10.0068 11.5763 10.4691 11.1481 10.7158L6.43689 6.00464C6.48694 6.00012 6.53748 5.99744 6.58875 5.99744C7.01929 5.99744 7.4292 6.15991 7.7428 6.45508C8.01562 6.71179 8.45203 6.67236 8.67432 6.37061C8.84912 6.13342 9.11768 5.99744 9.41138 5.99744C9.91565 5.99744 10.3259 6.40771 10.3259 6.91199C10.3259 7.02515 10.3053 7.13586 10.2646 7.24109C10.1255 7.60156 10.3439 8.00183 10.7235 8.07886ZM13.1946 12.7623L12.0481 11.616C12.6959 11.1267 13.1155 10.3506 13.1155 9.47803C13.1155 8.42432 12.4938 7.4845 11.5714 7.05188C11.5745 7.00549 11.5759 6.95886 11.5759 6.91199C11.5759 5.71851 10.6049 4.74744 9.41125 4.74744C8.94202 4.74744 8.4884 4.9021 8.11841 5.17712C7.6615 4.89734 7.13477 4.74744 6.58875 4.74744C6.17419 4.74744 5.77966 4.83398 5.42188 4.98962L3.68933 3.25708C4.89856 2.25012 6.40698 1.70166 8 1.70166C11.7306 1.70166 14.75 4.72058 14.75 8.45166C14.75 10.0447 14.2015 11.5532 13.1946 12.7623Z" fill="white"/>
</svg>
