<svg width="24" height="18" viewBox="0 0 24 18" fill="none" xmlns="http://www.w3.org/2000/svg">
    <path d="M9.77405 13.1289H19.9211C20.3098 13.1289 20.625 13.4441 20.625 13.8328C20.625 14.2215 20.3098 14.5367 19.9211 14.5367H9.77405C9.38531 14.5367 9.07015 14.2215 9.07015 13.8328C9.07015 13.4441 9.38531 13.1289 9.77405 13.1289Z"
          fill="#0D0D39"/>
    <path d="M0.155605 15.1943L4.21421 5.90869C4.50313 5.24755 5.1983 4.88899 5.90449 5.03648C6.61078 5.18411 7.10407 5.7911 7.10407 6.51263V10.6357C7.42246 10.3909 7.7829 10.1985 8.17244 10.0708V8.09137C8.17244 6.67904 9.31401 5.52836 10.7229 5.51334V2.91935C10.7229 1.42752 11.9365 0.213867 13.4284 0.213867H17.8081C18.9015 0.213867 19.7911 1.1034 19.7911 2.19683V5.51325H20.181C21.1065 5.51325 21.8594 6.26613 21.8594 7.19161V10.2007C23.1189 10.7596 24 12.0214 24 13.4858V14.1926C24 16.1738 22.3882 17.7855 20.407 17.7855H9.2883C8.02542 17.7855 6.91322 17.1304 6.27239 16.1423C5.51946 17.1395 4.32524 17.7855 2.9823 17.7855H1.85105C1.22454 17.7855 0.645704 17.4725 0.302719 16.9483C-0.0403118 16.424 -0.0953083 15.7684 0.155605 15.1943ZM12.1306 2.91935V5.5132H15.3401V1.62161H13.4283C12.7127 1.62165 12.1306 2.20377 12.1306 2.91935ZM20.4515 7.19156C20.4515 7.04492 20.3276 6.92099 20.181 6.92099H19.0871C18.6984 6.92099 18.3832 6.60583 18.3832 6.21709V2.19678C18.3832 1.87961 18.1252 1.62161 17.808 1.62161H16.7479V6.21709C16.7479 6.60583 16.4328 6.92099 16.044 6.92099H10.7505C10.1051 6.92099 9.58013 7.446 9.58013 8.09133V9.89287H20.407C20.422 9.89287 20.4367 9.89381 20.4515 9.894V7.19156ZM7.10308 14.1926C7.10308 15.3975 8.08337 16.3778 9.28825 16.3778H20.407C21.6119 16.3778 22.5922 15.3975 22.5922 14.1926V13.4858C22.5922 12.2809 21.6119 11.3007 20.407 11.3007H9.2883C8.08337 11.3007 7.10313 12.281 7.10313 13.4858V14.1926H7.10308ZM1.48071 16.1775C1.52013 16.2377 1.635 16.3778 1.851 16.3778H2.98225C4.47878 16.3778 5.69623 15.1603 5.69623 13.6638V6.51263C5.69623 6.47828 5.69623 6.43117 5.61651 6.41447C5.60426 6.41193 5.59351 6.4108 5.58394 6.4108C5.53115 6.4108 5.51585 6.44581 5.50416 6.47247L1.44556 15.7581C1.35908 15.956 1.44134 16.1173 1.48071 16.1775Z"
          fill="#0D0D39"/>
</svg>
